<svg width="172" height="48" viewBox="0 0 172 48" fill="none" xmlns="http://www.w3.org/2000/svg">
<rect width="171.6" height="48" rx="9.6" fill="#E71869"/>
<g clip-path="url(#clip0_115_436)">
<path d="M23.7892 27.524H17.9524L16.8772 30.5H15.034L19.8724 17.1944H21.8884L26.7076 30.5H24.8644L23.7892 27.524ZM23.29 26.1032L20.8708 19.3448L18.4516 26.1032H23.29ZM28.1635 25.2008C28.1635 24.1256 28.3811 23.1848 28.8163 22.3784C29.2515 21.5592 29.8467 20.9256 30.6019 20.4776C31.3699 20.0296 32.2275 19.8056 33.1747 19.8056C33.9939 19.8056 34.7555 19.9976 35.4595 20.3816C36.1635 20.7528 36.7011 21.2456 37.0723 21.86V16.292H38.8387V30.5H37.0723V28.5224C36.7267 29.1496 36.2147 29.668 35.5363 30.0776C34.8579 30.4744 34.0643 30.6728 33.1555 30.6728C32.2211 30.6728 31.3699 30.4424 30.6019 29.9816C29.8467 29.5208 29.2515 28.8744 28.8163 28.0424C28.3811 27.2104 28.1635 26.2632 28.1635 25.2008ZM37.0723 25.22C37.0723 24.4264 36.9123 23.7352 36.5923 23.1464C36.2723 22.5576 35.8371 22.1096 35.2867 21.8024C34.7491 21.4824 34.1539 21.3224 33.5011 21.3224C32.8483 21.3224 32.2531 21.476 31.7155 21.7832C31.1779 22.0904 30.7491 22.5384 30.4291 23.1272C30.1091 23.716 29.9491 24.4072 29.9491 25.2008C29.9491 26.0072 30.1091 26.7112 30.4291 27.3128C30.7491 27.9016 31.1779 28.356 31.7155 28.676C32.2531 28.9832 32.8483 29.1368 33.5011 29.1368C34.1539 29.1368 34.7491 28.9832 35.2867 28.676C35.8371 28.356 36.2723 27.9016 36.5923 27.3128C36.9123 26.7112 37.0723 26.0136 37.0723 25.22ZM41.1385 25.2008C41.1385 24.1256 41.3561 23.1848 41.7913 22.3784C42.2265 21.5592 42.8217 20.9256 43.5769 20.4776C44.3449 20.0296 45.2025 19.8056 46.1497 19.8056C46.9689 19.8056 47.7305 19.9976 48.4345 20.3816C49.1385 20.7528 49.6761 21.2456 50.0473 21.86V16.292H51.8137V30.5H50.0473V28.5224C49.7017 29.1496 49.1897 29.668 48.5113 30.0776C47.8329 30.4744 47.0393 30.6728 46.1305 30.6728C45.1961 30.6728 44.3449 30.4424 43.5769 29.9816C42.8217 29.5208 42.2265 28.8744 41.7913 28.0424C41.3561 27.2104 41.1385 26.2632 41.1385 25.2008ZM50.0473 25.22C50.0473 24.4264 49.8873 23.7352 49.5673 23.1464C49.2473 22.5576 48.8121 22.1096 48.2617 21.8024C47.7241 21.4824 47.1289 21.3224 46.4761 21.3224C45.8233 21.3224 45.2281 21.476 44.6905 21.7832C44.1529 22.0904 43.7241 22.5384 43.4041 23.1272C43.0841 23.716 42.9241 24.4072 42.9241 25.2008C42.9241 26.0072 43.0841 26.7112 43.4041 27.3128C43.7241 27.9016 44.1529 28.356 44.6905 28.676C45.2281 28.9832 45.8233 29.1368 46.4761 29.1368C47.1289 29.1368 47.7241 28.9832 48.2617 28.676C48.8121 28.356 49.2473 27.9016 49.5673 27.3128C49.8873 26.7112 50.0473 26.0136 50.0473 25.22ZM68.1218 17.1176V18.5384H64.4738V30.5H62.7266V18.5384H59.0594V17.1176H68.1218ZM74.8613 30.6728C73.8757 30.6728 72.9797 30.4488 72.1733 30.0008C71.3797 29.5528 70.7525 28.9192 70.2917 28.1C69.8437 27.268 69.6197 26.308 69.6197 25.22C69.6197 24.1448 69.8501 23.1976 70.3109 22.3784C70.7845 21.5464 71.4245 20.9128 72.2309 20.4776C73.0373 20.0296 73.9397 19.8056 74.9381 19.8056C75.9365 19.8056 76.8389 20.0296 77.6453 20.4776C78.4517 20.9128 79.0853 21.54 79.5461 22.3592C80.0197 23.1784 80.2565 24.132 80.2565 25.22C80.2565 26.308 80.0133 27.268 79.5269 28.1C79.0533 28.9192 78.4069 29.5528 77.5877 30.0008C76.7685 30.4488 75.8597 30.6728 74.8613 30.6728ZM74.8613 29.1368C75.4885 29.1368 76.0773 28.9896 76.6277 28.6952C77.1781 28.4008 77.6197 27.9592 77.9525 27.3704C78.2981 26.7816 78.4709 26.0648 78.4709 25.22C78.4709 24.3752 78.3045 23.6584 77.9717 23.0696C77.6389 22.4808 77.2037 22.0456 76.6661 21.764C76.1285 21.4696 75.5461 21.3224 74.9189 21.3224C74.2789 21.3224 73.6901 21.4696 73.1525 21.764C72.6277 22.0456 72.2053 22.4808 71.8853 23.0696C71.5653 23.6584 71.4053 24.3752 71.4053 25.22C71.4053 26.0776 71.5589 26.8008 71.8661 27.3896C72.1861 27.9784 72.6085 28.42 73.1333 28.7144C73.6581 28.996 74.2341 29.1368 74.8613 29.1368ZM87.0197 23.7992C87.0197 22.4936 87.3141 21.3224 87.9029 20.2856C88.4917 19.236 89.2917 18.4168 90.3029 17.828C91.3269 17.2392 92.4597 16.9448 93.7013 16.9448C95.1605 16.9448 96.4341 17.2968 97.5221 18.0008C98.6101 18.7048 99.4037 19.7032 99.9029 20.996H97.8101C97.4389 20.1896 96.9013 19.5688 96.1973 19.1336C95.5061 18.6984 94.6741 18.4808 93.7013 18.4808C92.7669 18.4808 91.9285 18.6984 91.1861 19.1336C90.4437 19.5688 89.8613 20.1896 89.4389 20.996C89.0165 21.7896 88.8053 22.724 88.8053 23.7992C88.8053 24.8616 89.0165 25.796 89.4389 26.6024C89.8613 27.396 90.4437 28.0104 91.1861 28.4456C91.9285 28.8808 92.7669 29.0984 93.7013 29.0984C94.6741 29.0984 95.5061 28.8872 96.1973 28.4648C96.9013 28.0296 97.4389 27.4088 97.8101 26.6024H99.9029C99.4037 27.8824 98.6101 28.8744 97.5221 29.5784C96.4341 30.2696 95.1605 30.6152 93.7013 30.6152C92.4597 30.6152 91.3269 30.3272 90.3029 29.7512C89.2917 29.1624 88.4917 28.3496 87.9029 27.3128C87.3141 26.276 87.0197 25.1048 87.0197 23.7992ZM101.851 25.2008C101.851 24.1256 102.069 23.1848 102.504 22.3784C102.939 21.5592 103.534 20.9256 104.289 20.4776C105.057 20.0296 105.909 19.8056 106.843 19.8056C107.765 19.8056 108.565 20.004 109.243 20.4008C109.921 20.7976 110.427 21.2968 110.76 21.8984V19.9784H112.526V30.5H110.76V28.5416C110.414 29.156 109.896 29.668 109.205 30.0776C108.526 30.4744 107.733 30.6728 106.824 30.6728C105.889 30.6728 105.045 30.4424 104.289 29.9816C103.534 29.5208 102.939 28.8744 102.504 28.0424C102.069 27.2104 101.851 26.2632 101.851 25.2008ZM110.76 25.22C110.76 24.4264 110.6 23.7352 110.28 23.1464C109.96 22.5576 109.525 22.1096 108.974 21.8024C108.437 21.4824 107.841 21.3224 107.189 21.3224C106.536 21.3224 105.941 21.476 105.403 21.7832C104.865 22.0904 104.437 22.5384 104.117 23.1272C103.797 23.716 103.637 24.4072 103.637 25.2008C103.637 26.0072 103.797 26.7112 104.117 27.3128C104.437 27.9016 104.865 28.356 105.403 28.676C105.941 28.9832 106.536 29.1368 107.189 29.1368C107.841 29.1368 108.437 28.9832 108.974 28.676C109.525 28.356 109.96 27.9016 110.28 27.3128C110.6 26.7112 110.76 26.0136 110.76 25.22ZM117.226 21.6872C117.533 21.0856 117.968 20.6184 118.532 20.2856C119.108 19.9528 119.805 19.7864 120.624 19.7864V21.5912H120.164C118.205 21.5912 117.226 22.6536 117.226 24.7784V30.5H115.479V19.9784H117.226V21.6872ZM124.772 21.4184V27.62C124.772 28.132 124.881 28.4968 125.099 28.7144C125.316 28.9192 125.694 29.0216 126.232 29.0216H127.518V30.5H125.944C124.971 30.5 124.241 30.276 123.755 29.828C123.268 29.38 123.025 28.644 123.025 27.62V21.4184H121.662V19.9784H123.025V17.3288H124.772V19.9784H127.518V21.4184H124.772Z" fill="white"/>
</g>
<path d="M147.6 16.8V31.2M140.4 24H154.8" stroke="white" stroke-width="1.8" stroke-linecap="round" stroke-linejoin="round"/>
<defs>
<clipPath id="clip0_115_436">
<rect width="123.6" height="29" fill="white" transform="translate(9.6001 9.5)"/>
</clipPath>
</defs>
</svg>
