<svg width="25" height="24" viewBox="0 0 25 24" fill="none" xmlns="http://www.w3.org/2000/svg">
<path d="M12.5001 2L15.6041 8.728L22.9621 9.601L17.5221 14.631L18.9661 21.899L12.5001 18.28L6.03409 21.9L7.47809 14.632L2.03809 9.6L9.39709 8.727L12.5001 2Z" stroke="#191954" stroke-width="2" stroke-linejoin="round"/>
<path d="M12.5001 2L15.6041 8.728L22.9621 9.601L17.5221 14.631L18.9661 21.899L12.5001 18.28L6.03409 21.9L7.47809 14.632L2.03809 9.6L9.39709 8.727L12.5001 2Z" stroke="#191954" stroke-width="2" stroke-linejoin="round"/>
<path d="M12.5001 2L15.6041 8.728L22.9621 9.601L17.5221 14.631L18.9661 21.899L12.5001 18.28L6.03409 21.9L7.47809 14.632L2.03809 9.6L9.39709 8.727L12.5001 2Z" stroke="#191954" stroke-width="1.5" stroke-linejoin="round"/>
<path d="M12.5003 2.5C12.686 2.5001 12.8679 2.55188 13.0258 2.64955C13.1837 2.74722 13.3113 2.88692 13.3943 3.053L15.9743 8.211L21.6443 9.035C21.829 9.06182 22.0025 9.1398 22.1452 9.2601C22.2879 9.38041 22.394 9.53825 22.4517 9.71576C22.5093 9.89327 22.5161 10.0834 22.4714 10.2646C22.4266 10.4457 22.332 10.6108 22.1983 10.741L18.0713 14.765L18.9993 20.439C19.0291 20.6227 19.0071 20.811 18.9357 20.9829C18.8643 21.1547 18.7464 21.3032 18.5952 21.4117C18.444 21.5202 18.2655 21.5843 18.0799 21.5969C17.8942 21.6095 17.7087 21.5701 17.5443 21.483L12.5003 18.807L7.45629 21.483C7.29184 21.5701 7.10635 21.6095 6.92069 21.5969C6.73504 21.5843 6.55658 21.5202 6.40539 21.4117C6.2542 21.3032 6.13628 21.1547 6.06489 20.9829C5.9935 20.811 5.97147 20.6227 6.00129 20.439L6.92929 14.765L2.80229 10.741C2.66859 10.6108 2.57399 10.4457 2.52921 10.2646C2.48443 10.0834 2.49125 9.89327 2.54889 9.71576C2.60654 9.53825 2.71271 9.38041 2.8554 9.2601C2.99808 9.1398 3.17159 9.06182 3.35629 9.035L9.02629 8.211L11.6063 3.053C11.6893 2.88692 11.8169 2.74722 11.9748 2.64955C12.1327 2.55188 12.3146 2.5001 12.5003 2.5ZM12.5003 5.736L10.5823 9.572C10.5103 9.71626 10.4045 9.84099 10.2739 9.93553C10.1433 10.0301 9.99182 10.0917 9.83229 10.115L5.64829 10.723L8.69829 13.696C8.81355 13.8083 8.90001 13.9468 8.95032 14.0996C9.00064 14.2525 9.01332 14.4152 8.98729 14.574L8.30029 18.771L12.0313 16.791C12.1757 16.7143 12.3368 16.6742 12.5003 16.6742C12.6638 16.6742 12.8249 16.7143 12.9693 16.791L16.7003 18.771L16.0133 14.574C15.9874 14.4154 16.0002 14.2528 16.0505 14.1001C16.1008 13.9475 16.1872 13.8092 16.3023 13.697L19.3523 10.723L15.1693 10.115C15.0098 10.0917 14.8582 10.0301 14.7277 9.93553C14.5971 9.84099 14.4913 9.71626 14.4193 9.572L12.5003 5.736Z" fill="#191954"/>
</svg>
