<svg width="24" height="24" viewBox="0 0 24 24" fill="none" xmlns="http://www.w3.org/2000/svg">
<path d="M4.142 4L6.01 16.136C6.0432 16.378 6.16385 16.5996 6.34919 16.7587C6.53452 16.9179 6.77172 17.0037 7.016 17H18C18.2151 17 18.4245 16.9307 18.5971 16.8022C18.7697 16.6738 18.8963 16.4931 18.958 16.287L21.958 6.287C22.0027 6.13769 22.0119 5.97999 21.9849 5.82649C21.9579 5.67299 21.8953 5.52793 21.8022 5.4029C21.7092 5.27787 21.5882 5.17632 21.4489 5.10637C21.3096 5.03642 21.1559 4.99999 21 5H6.32L5.99 2.862C5.95602 2.61746 5.83278 2.39412 5.644 2.235C5.45954 2.07965 5.22514 1.99619 4.984 2H3C2.73478 2 2.48043 2.10536 2.29289 2.2929C2.10536 2.48043 2 2.73479 2 3C2 3.26522 2.10536 3.51957 2.29289 3.70711C2.48043 3.89465 2.73478 4 3 4H4.142ZM7.858 15L6.628 7H19.656L17.256 15H7.858ZM10 20C10 20.5304 9.78929 21.0391 9.41421 21.4142C9.03914 21.7893 8.53043 22 8 22C7.46957 22 6.96086 21.7893 6.58579 21.4142C6.21071 21.0391 6 20.5304 6 20C6 19.4696 6.21071 18.9609 6.58579 18.5858C6.96086 18.2107 7.46957 18 8 18C8.53043 18 9.03914 18.2107 9.41421 18.5858C9.78929 18.9609 10 19.4696 10 20ZM19 20C19 20.5304 18.7893 21.0391 18.4142 21.4142C18.0391 21.7893 17.5304 22 17 22C16.4696 22 15.9609 21.7893 15.5858 21.4142C15.2107 21.0391 15 20.5304 15 20C15 19.4696 15.2107 18.9609 15.5858 18.5858C15.9609 18.2107 16.4696 18 17 18C17.5304 18 18.0391 18.2107 18.4142 18.5858C18.7893 18.9609 19 19.4696 19 20Z" fill="white"/>
<path d="M4 4H6V6H4V4ZM4 18H6V20H4V18ZM18 4H20V6H18V4ZM18 11H20V13H18V11ZM11 11H13V13H11V11ZM4 11H6V13H4V11ZM11 4H13V6H11V4ZM11 18H13V20H11V18ZM18 18H20V20H18V18Z" stroke="white" stroke-width="2" stroke-linecap="round" stroke-linejoin="round"/>
</svg>
