<svg width="25" height="24" viewBox="0 0 25 24" fill="none" xmlns="http://www.w3.org/2000/svg">
<path d="M3.5 2.25C3.30109 2.25 3.11032 2.32902 2.96967 2.46967C2.82902 2.61032 2.75 2.80109 2.75 3C2.75 3.19891 2.82902 3.38968 2.96967 3.53033C3.11032 3.67098 3.30109 3.75 3.5 3.75V2.25ZM5.5 3L6.248 2.942C6.23339 2.75365 6.14824 2.57775 6.00957 2.44946C5.87089 2.32117 5.68891 2.24994 5.5 2.25V3ZM21.5 6L22.245 6.083C22.2567 5.97819 22.2461 5.87209 22.214 5.77164C22.1819 5.67118 22.1289 5.57863 22.0586 5.50002C21.9883 5.42141 21.9022 5.35851 21.806 5.31543C21.7097 5.27235 21.6055 5.25006 21.5 5.25V6ZM3.5 3.75H5.5V2.25H3.5V3.75ZM8.537 16.606L18.892 15.867L18.785 14.371L8.431 15.111L8.537 16.606ZM21.429 13.427L22.245 6.083L20.755 5.917L19.939 13.262L21.429 13.427ZM4.752 3.057L4.983 6.058L6.479 5.942L6.248 2.942L4.752 3.057ZM4.983 6.058L5.6 14.074L7.095 13.959L6.479 5.942L4.983 6.058ZM21.5 5.25H5.73V6.75H21.5V5.25ZM18.892 15.867C19.5334 15.8211 20.1385 15.5519 20.602 15.1061C21.0655 14.6603 21.3581 14.0662 21.429 13.427L19.939 13.262C19.9067 13.5526 19.7736 13.8228 19.5628 14.0254C19.3519 14.228 19.0767 14.3503 18.785 14.371L18.892 15.867ZM8.431 15.11C8.10155 15.1337 7.77611 15.0261 7.52578 14.8106C7.27544 14.5951 7.12057 14.2893 7.095 13.96L5.6 14.074C5.65577 14.7984 5.99596 15.4714 6.54626 15.9458C7.09657 16.4202 7.81226 16.6576 8.537 16.606L8.431 15.11Z" fill="#191954"/>
<path d="M13.5 9.5V12.5M12 11H15" stroke="#191954" stroke-width="1.5" stroke-linecap="round" stroke-linejoin="round"/>
<path d="M18 20.5H18.01V20.51H18V20.5ZM9 20.5H9.01V20.51H9V20.5Z" stroke="#191954" stroke-width="2.25" stroke-linejoin="round"/>
</svg>
