<svg width="25" height="24" viewBox="0 0 25 24" fill="none" xmlns="http://www.w3.org/2000/svg">
<path d="M19.0719 5.86783C18.5294 4.57244 17.6161 3.46627 16.4468 2.68831C15.2775 1.91035 13.9044 1.4953 12.5 1.4953C11.0956 1.4953 9.7225 1.91035 8.55323 2.68831C7.38397 3.46627 6.47069 4.57244 5.92815 5.86783C4.75647 6.40337 3.76333 7.26427 3.06693 8.34809C2.37054 9.43191 2.00021 10.693 2.00002 11.9813C1.99065 15.5625 5.00002 18.6563 8.57565 18.75C9.67545 18.7765 10.7651 18.5342 11.75 18.0441V21.75C11.75 21.9489 11.829 22.1397 11.9697 22.2803C12.1103 22.421 12.3011 22.5 12.5 22.5C12.6989 22.5 12.8897 22.421 13.0304 22.2803C13.171 22.1397 13.25 21.9489 13.25 21.75V18.0441C14.1824 18.507 15.209 18.7485 16.25 18.75H16.4206C20 18.6563 23.0103 15.5625 23 11.9813C22.9998 10.693 22.6295 9.43191 21.9331 8.34809C21.2367 7.26427 20.2436 6.40337 19.0719 5.86783ZM16.386 17.25C15.2675 17.2792 14.169 16.9507 13.25 16.3125V12.4688L17.3356 10.4269C17.4238 10.3828 17.5024 10.3218 17.567 10.2474C17.6315 10.1729 17.6808 10.0865 17.712 9.99297C17.7432 9.89947 17.7556 9.80075 17.7486 9.70244C17.7416 9.60414 17.7153 9.50817 17.6713 9.42002C17.6272 9.33187 17.5662 9.25326 17.4917 9.18869C17.4173 9.12412 17.3308 9.07484 17.2373 9.04368C17.1438 9.01251 17.0451 9.00006 16.9468 9.00705C16.8485 9.01404 16.7525 9.04032 16.6644 9.08439L13.25 10.7869V8.25002C13.25 8.05111 13.171 7.86034 13.0304 7.71969C12.8897 7.57904 12.6989 7.50002 12.5 7.50002C12.3011 7.50002 12.1103 7.57904 11.9697 7.71969C11.829 7.86034 11.75 8.05111 11.75 8.25002V13.0369L8.33565 11.3288C8.15762 11.2398 7.95153 11.2251 7.7627 11.2881C7.57387 11.351 7.41779 11.4864 7.32877 11.6644C7.23976 11.8424 7.22511 12.0485 7.28805 12.2373C7.351 12.4262 7.48637 12.5823 7.6644 12.6713L11.75 14.7131V16.3069C10.8313 16.9456 9.73259 17.2741 8.61409 17.2444C5.8344 17.1778 3.49252 14.7675 3.50002 11.985C3.49931 10.9386 3.81263 9.91597 4.39945 9.04953C4.98627 8.18309 5.81958 7.51268 6.79158 7.12502C6.88909 7.08586 6.97729 7.02666 7.05045 6.95124C7.12361 6.87581 7.1801 6.78586 7.21627 6.68721C7.61188 5.60382 8.33095 4.66823 9.27607 4.00719C10.2212 3.34615 11.3467 2.99161 12.5 2.99161C13.6534 2.99161 14.7789 3.34615 15.724 4.00719C16.6691 4.66823 17.3882 5.60382 17.7838 6.68721C17.8199 6.78586 17.8764 6.87581 17.9496 6.95124C18.0228 7.02666 18.111 7.08586 18.2085 7.12502C19.1803 7.51289 20.0135 8.18336 20.6003 9.04975C21.1871 9.91614 21.5005 10.9386 21.5 11.985C21.5075 14.7675 19.1656 17.1778 16.386 17.25Z" fill="#191954"/>
<path d="M18.9266 6.00844C18.4069 4.73026 17.5178 3.63608 16.373 2.86578C15.2283 2.09547 13.8798 1.68402 12.5 1.68402C11.1202 1.68402 9.77176 2.09547 8.627 2.86578C7.48224 3.63608 6.59318 4.73026 6.07346 6.00844C4.91722 6.52119 3.93463 7.35845 3.24486 8.41865C2.55509 9.47884 2.18779 10.7164 2.18752 11.9813C2.17815 15.4603 5.10596 18.4688 8.58033 18.5625C9.75321 18.59 10.9122 18.3039 11.9375 17.7338V21.75C11.9375 21.8992 11.9968 22.0423 12.1023 22.1477C12.2078 22.2532 12.3508 22.3125 12.5 22.3125C12.6492 22.3125 12.7923 22.2532 12.8978 22.1477C13.0033 22.0423 13.0625 21.8992 13.0625 21.75V17.7338C14.0375 18.2761 15.1344 18.5613 16.25 18.5625H16.416C19.8941 18.4688 22.8219 15.4594 22.8125 11.9813C22.8123 10.7164 22.445 9.47884 21.7552 8.41865C21.0654 7.35845 20.0828 6.52119 18.9266 6.00844ZM16.3906 17.4375C15.1981 17.469 14.0284 17.1065 13.0625 16.4063V12.3478L17.2513 10.2534C17.3848 10.1868 17.4864 10.0699 17.5337 9.92832C17.581 9.78679 17.5701 9.63227 17.5035 9.49875C17.4368 9.36523 17.3199 9.26365 17.1783 9.21636C17.0368 9.16906 16.8823 9.17993 16.7488 9.24656L13.0625 11.0897V8.25C13.0625 8.10082 13.0033 7.95774 12.8978 7.85225C12.7923 7.74676 12.6492 7.6875 12.5 7.6875C12.3508 7.6875 12.2078 7.74676 12.1023 7.85225C11.9968 7.95774 11.9375 8.10082 11.9375 8.25V13.3397L8.25127 11.4966C8.11775 11.4299 7.96323 11.4191 7.8217 11.4664C7.68017 11.5137 7.56322 11.6152 7.49658 11.7488C7.42995 11.8823 7.41908 12.0368 7.46638 12.1783C7.51367 12.3199 7.61525 12.4368 7.74877 12.5034L11.9375 14.5978V16.4063C10.971 17.1051 9.80176 17.4674 8.6094 17.4375C5.73033 17.3653 3.30502 14.8688 3.31252 11.9869C3.31247 10.9034 3.63734 9.84476 4.24517 8.94781C4.85299 8.05086 5.71584 7.3568 6.72221 6.95531C6.79528 6.92579 6.86133 6.88124 6.91608 6.82455C6.97083 6.76786 7.01306 6.7003 7.04002 6.62625C7.44877 5.50667 8.1918 4.53981 9.16846 3.85666C10.1451 3.17352 11.3082 2.80713 12.5 2.80713C13.6919 2.80713 14.8549 3.17352 15.8316 3.85666C16.8082 4.53981 17.5513 5.50667 17.96 6.62625C17.987 6.7003 18.0292 6.76786 18.084 6.82455C18.1387 6.88124 18.2048 6.92579 18.2778 6.95531C19.2838 7.35651 20.1464 8.05011 20.7543 8.94653C21.3621 9.84295 21.6871 10.901 21.6875 11.9841C21.695 14.8669 19.2697 17.3625 16.3906 17.4375Z" fill="#191954"/>
</svg>
