<svg width="25" height="24" viewBox="0 0 25 24" fill="none" xmlns="http://www.w3.org/2000/svg">
<path d="M23.75 12C23.75 12.1989 23.671 12.3897 23.5303 12.5303C23.3897 12.671 23.1989 12.75 23 12.75H21.4372C21.2585 13.7979 20.7153 14.749 19.9033 15.4352C19.0914 16.1214 18.0631 16.4985 17 16.5H13.25V18.75H15.5C16.2956 18.75 17.0587 19.0661 17.6213 19.6287C18.1839 20.1913 18.5 20.9544 18.5 21.75C18.5 21.9489 18.421 22.1397 18.2803 22.2803C18.1397 22.421 17.9489 22.5 17.75 22.5C17.5511 22.5 17.3603 22.421 17.2197 22.2803C17.079 22.1397 17 21.9489 17 21.75C17 21.3522 16.842 20.9706 16.5607 20.6893C16.2794 20.408 15.8978 20.25 15.5 20.25H13.25V21.75C13.25 21.9489 13.171 22.1397 13.0303 22.2803C12.8897 22.421 12.6989 22.5 12.5 22.5C12.3011 22.5 12.1103 22.421 11.9697 22.2803C11.829 22.1397 11.75 21.9489 11.75 21.75V20.25H9.5C9.10218 20.25 8.72064 20.408 8.43934 20.6893C8.15804 20.9706 8 21.3522 8 21.75C8 21.9489 7.92098 22.1397 7.78033 22.2803C7.63968 22.421 7.44891 22.5 7.25 22.5C7.05109 22.5 6.86032 22.421 6.71967 22.2803C6.57902 22.1397 6.5 21.9489 6.5 21.75C6.5 20.9544 6.81607 20.1913 7.37868 19.6287C7.94129 19.0661 8.70435 18.75 9.5 18.75H11.75V16.5H8C6.93694 16.4985 5.90861 16.1214 5.09668 15.4352C4.28474 14.749 3.74146 13.7979 3.56281 12.75H2C1.80109 12.75 1.61032 12.671 1.46967 12.5303C1.32902 12.3897 1.25 12.1989 1.25 12C1.25 11.8011 1.32902 11.6103 1.46967 11.4697C1.61032 11.329 1.80109 11.25 2 11.25H4.25C4.44891 11.25 4.63968 11.329 4.78033 11.4697C4.92098 11.6103 5 11.8011 5 12C5 12.7956 5.31607 13.5587 5.87868 14.1213C6.44129 14.6839 7.20435 15 8 15H17C17.7956 15 18.5587 14.6839 19.1213 14.1213C19.6839 13.5587 20 12.7956 20 12C20 11.8011 20.079 11.6103 20.2197 11.4697C20.3603 11.329 20.5511 11.25 20.75 11.25H23C23.1989 11.25 23.3897 11.329 23.5303 11.4697C23.671 11.6103 23.75 11.8011 23.75 12ZM6.86656 12.9825C6.72586 12.8202 6.62166 12.6296 6.56101 12.4235C6.50036 12.2175 6.48467 12.0008 6.515 11.7881L7.80125 2.78813C7.85374 2.43127 8.03243 2.10506 8.3049 1.86871C8.57738 1.63236 8.92556 1.50154 9.28625 1.5H15.7137C16.0744 1.50154 16.4226 1.63236 16.6951 1.86871C16.9676 2.10506 17.1463 2.43127 17.1987 2.78813L18.485 11.7881C18.5154 12.0009 18.4996 12.2176 18.4389 12.4238C18.3782 12.6299 18.2739 12.8206 18.1331 12.9829C17.9923 13.1452 17.8183 13.2754 17.6228 13.3646C17.4273 13.4538 17.2149 13.5 17 13.5H8C7.78503 13.5 7.57256 13.4538 7.37701 13.3645C7.18145 13.2752 7.00737 13.1449 6.86656 12.9825ZM8 12H17L15.7137 3H9.28531L8 12Z" fill="#191954"/>
<path d="M7.38604 18H17.033C17.65 18 17.959 18 18.235 17.961C19.361 17.803 20.335 17.176 20.859 16.271C20.988 16.049 21.085 15.788 21.28 15.265L22.4 12.265C22.815 11.15 21.887 10 20.573 10C19.763 10 19.039 10.453 18.763 11.134L17.763 13.6C17.568 14.078 17.471 14.317 17.287 14.483C17.1857 14.5743 17.0694 14.6473 16.938 14.702C16.7 14.8 16.416 14.8 15.847 14.8H8.86704C8.57404 14.8 8.42704 14.8 8.29704 14.773C8.00099 14.717 7.73683 14.5518 7.55704 14.31C7.48504 14.21 7.43504 14.086 7.33504 13.84L6.23704 11.134C5.96104 10.454 5.23704 10 4.42704 10C3.11304 10 2.18504 11.15 2.60004 12.264L3.90304 15.757L3.94204 15.859C4.43904 17.124 5.76504 17.979 7.26504 17.999L7.38604 18Z" stroke="#191954" stroke-width="1.5"/>
<path d="M6.5 12V8.571C6.5 6.416 6.5 5.339 7.203 4.669C7.906 3.999 9.037 4 11.3 4H13.7C15.963 4 17.094 4 17.797 4.67C18.5 5.338 18.5 6.415 18.5 8.57V12" stroke="#191954" stroke-width="1.5"/>
<path d="M18.5 20V18M6.5 20V18.667" stroke="#191954" stroke-width="1.5" stroke-linecap="round"/>
<path d="M5.5 21C5.21667 21 4.97933 20.904 4.788 20.712C4.59667 20.52 4.50067 20.2827 4.5 20V19C3.66667 19 2.95833 18.7083 2.375 18.125C1.79167 17.5417 1.5 16.8333 1.5 16V11C1.5 10.1667 1.79167 9.45833 2.375 8.875C2.95833 8.29167 3.66667 8 4.5 8V6C4.5 5.16667 4.79167 4.45833 5.375 3.875C5.95833 3.29167 6.66667 3 7.5 3H17.5C18.3333 3 19.0417 3.29167 19.625 3.875C20.2083 4.45833 20.5 5.16667 20.5 6V8C21.3333 8 22.0417 8.29167 22.625 8.875C23.2083 9.45833 23.5 10.1667 23.5 11V16C23.5 16.8333 23.2083 17.5417 22.625 18.125C22.0417 18.7083 21.3333 19 20.5 19V20C20.5 20.2833 20.404 20.521 20.212 20.713C20.02 20.905 19.7827 21.0007 19.5 21C19.2173 20.9993 18.98 20.9033 18.788 20.712C18.596 20.5207 18.5 20.2833 18.5 20V19H6.5V20C6.5 20.2833 6.404 20.521 6.212 20.713C6.02 20.905 5.78267 21.0007 5.5 21ZM4.5 17H20.5C20.7833 17 21.021 16.904 21.213 16.712C21.405 16.52 21.5007 16.2827 21.5 16V11C21.5 10.7167 21.404 10.4793 21.212 10.288C21.02 10.0967 20.7827 10.0007 20.5 10C20.2173 9.99933 19.98 10.0953 19.788 10.288C19.596 10.4807 19.5 10.718 19.5 11V15H5.5V11C5.5 10.7167 5.404 10.4793 5.212 10.288C5.02 10.0967 4.78267 10.0007 4.5 10C4.21733 9.99933 3.98 10.0953 3.788 10.288C3.596 10.4807 3.5 10.718 3.5 11V16C3.5 16.2833 3.596 16.521 3.788 16.713C3.98 16.905 4.21733 17.0007 4.5 17ZM7.5 13H17.5V11C17.5 10.55 17.5917 10.1417 17.775 9.775C17.9583 9.40833 18.2 9.08333 18.5 8.8V6C18.5 5.71667 18.404 5.47933 18.212 5.288C18.02 5.09667 17.7827 5.00067 17.5 5H7.5C7.21667 5 6.97933 5.096 6.788 5.288C6.59667 5.48 6.50067 5.71733 6.5 6V8.8C6.8 9.08333 7.04167 9.40833 7.225 9.775C7.40833 10.1417 7.5 10.55 7.5 11V13Z" fill="#191954"/>
</svg>
