<svg width="326" height="184" viewBox="0 0 326 184" fill="none" xmlns="http://www.w3.org/2000/svg">
<rect x="-39" y="15" width="116" height="153" rx="16" fill="white"/>
<rect x="-31" y="23" width="100" height="73" rx="8" fill="#FDC422"/>
<rect x="-31" y="104" width="63" height="8" rx="4" fill="#191954" fill-opacity="0.6"/>
<rect x="-31" y="120" width="100" height="4" rx="2" fill="#191954" fill-opacity="0.08"/>
<rect x="-31" y="132" width="65" height="4" rx="2" fill="#191954" fill-opacity="0.08"/>
<rect x="-31" y="150" width="40" height="4" rx="2" fill="#E71869"/>
<rect x="29" y="144" width="40" height="16" rx="8" fill="#E71869"/>
<rect x="248" y="15" width="116" height="153" rx="16" fill="white"/>
<rect x="256" y="23" width="100" height="73" rx="8" fill="#E71869"/>
<rect x="256" y="104" width="63" height="8" rx="4" fill="#191954" fill-opacity="0.6"/>
<rect x="256" y="120" width="100" height="4" rx="2" fill="#191954" fill-opacity="0.08"/>
<rect x="256" y="132" width="65" height="4" rx="2" fill="#191954" fill-opacity="0.08"/>
<rect x="256" y="150" width="40" height="4" rx="2" fill="#E71869"/>
<rect x="316" y="144" width="40" height="16" rx="8" fill="#E71869"/>
<rect x="93" width="139.2" height="183.6" rx="19.2" fill="white"/>
<rect x="102.6" y="9.59998" width="120" height="87.6" rx="9.6" fill="#27A59B"/>
<rect x="102.6" y="106.8" width="75.6" height="9.6" rx="4.8" fill="#191954" fill-opacity="0.6"/>
<rect x="102.6" y="126" width="120" height="4.8" rx="2.4" fill="#191954" fill-opacity="0.08"/>
<rect x="102.6" y="140.4" width="78" height="4.8" rx="2.4" fill="#191954" fill-opacity="0.08"/>
<rect x="102.6" y="162" width="48" height="4.8" rx="2.4" fill="#E71869"/>
<rect x="174.6" y="154.8" width="48" height="19.2" rx="9.6" fill="#E71869"/>
</svg>
