<svg width="172" height="184" viewBox="0 0 172 184" fill="none" xmlns="http://www.w3.org/2000/svg">
<rect x="15.7998" width="139.2" height="183.6" rx="19.2" fill="white"/>
<rect x="25.3999" y="9.59998" width="120" height="87.6" rx="9.6" fill="#27A59B"/>
<rect x="25.3999" y="106.8" width="75.6" height="9.6" rx="4.8" fill="#191954" fill-opacity="0.6"/>
<rect x="25.3999" y="126" width="120" height="4.8" rx="2.4" fill="#191954" fill-opacity="0.08"/>
<rect x="25.3999" y="140.4" width="78" height="4.8" rx="2.4" fill="#191954" fill-opacity="0.08"/>
<rect x="25.3999" y="162" width="48" height="4.8" rx="2.4" fill="#E71869"/>
<rect x="97.3999" y="154.8" width="48" height="19.2" rx="9.6" fill="#E71869"/>
<rect y="136" width="171.6" height="48" rx="9.6" fill="#E71869"/>
<g clip-path="url(#clip0_2026_89)">
<path d="M23.7892 163.524H17.9524L16.8772 166.5H15.034L19.8724 153.194H21.8884L26.7076 166.5H24.8644L23.7892 163.524ZM23.29 162.103L20.8708 155.345L18.4516 162.103H23.29ZM28.1635 161.201C28.1635 160.126 28.3811 159.185 28.8163 158.378C29.2515 157.559 29.8467 156.926 30.6019 156.478C31.3699 156.03 32.2275 155.806 33.1747 155.806C33.9939 155.806 34.7555 155.998 35.4595 156.382C36.1635 156.753 36.7011 157.246 37.0723 157.86V152.292H38.8387V166.5H37.0723V164.522C36.7267 165.15 36.2147 165.668 35.5363 166.078C34.8579 166.474 34.0643 166.673 33.1555 166.673C32.2211 166.673 31.3699 166.442 30.6019 165.982C29.8467 165.521 29.2515 164.874 28.8163 164.042C28.3811 163.21 28.1635 162.263 28.1635 161.201ZM37.0723 161.22C37.0723 160.426 36.9123 159.735 36.5923 159.146C36.2723 158.558 35.8371 158.11 35.2867 157.802C34.7491 157.482 34.1539 157.322 33.5011 157.322C32.8483 157.322 32.2531 157.476 31.7155 157.783C31.1779 158.09 30.7491 158.538 30.4291 159.127C30.1091 159.716 29.9491 160.407 29.9491 161.201C29.9491 162.007 30.1091 162.711 30.4291 163.313C30.7491 163.902 31.1779 164.356 31.7155 164.676C32.2531 164.983 32.8483 165.137 33.5011 165.137C34.1539 165.137 34.7491 164.983 35.2867 164.676C35.8371 164.356 36.2723 163.902 36.5923 163.313C36.9123 162.711 37.0723 162.014 37.0723 161.22ZM41.1385 161.201C41.1385 160.126 41.3561 159.185 41.7913 158.378C42.2265 157.559 42.8217 156.926 43.5769 156.478C44.3449 156.03 45.2025 155.806 46.1497 155.806C46.9689 155.806 47.7305 155.998 48.4345 156.382C49.1385 156.753 49.6761 157.246 50.0473 157.86V152.292H51.8137V166.5H50.0473V164.522C49.7017 165.15 49.1897 165.668 48.5113 166.078C47.8329 166.474 47.0393 166.673 46.1305 166.673C45.1961 166.673 44.3449 166.442 43.5769 165.982C42.8217 165.521 42.2265 164.874 41.7913 164.042C41.3561 163.21 41.1385 162.263 41.1385 161.201ZM50.0473 161.22C50.0473 160.426 49.8873 159.735 49.5673 159.146C49.2473 158.558 48.8121 158.11 48.2617 157.802C47.7241 157.482 47.1289 157.322 46.4761 157.322C45.8233 157.322 45.2281 157.476 44.6905 157.783C44.1529 158.09 43.7241 158.538 43.4041 159.127C43.0841 159.716 42.9241 160.407 42.9241 161.201C42.9241 162.007 43.0841 162.711 43.4041 163.313C43.7241 163.902 44.1529 164.356 44.6905 164.676C45.2281 164.983 45.8233 165.137 46.4761 165.137C47.1289 165.137 47.7241 164.983 48.2617 164.676C48.8121 164.356 49.2473 163.902 49.5673 163.313C49.8873 162.711 50.0473 162.014 50.0473 161.22ZM68.1218 153.118V154.538H64.4738V166.5H62.7266V154.538H59.0594V153.118H68.1218ZM74.8613 166.673C73.8757 166.673 72.9797 166.449 72.1733 166.001C71.3797 165.553 70.7525 164.919 70.2917 164.1C69.8437 163.268 69.6197 162.308 69.6197 161.22C69.6197 160.145 69.8501 159.198 70.3109 158.378C70.7845 157.546 71.4245 156.913 72.2309 156.478C73.0373 156.03 73.9397 155.806 74.9381 155.806C75.9365 155.806 76.8389 156.03 77.6453 156.478C78.4517 156.913 79.0853 157.54 79.5461 158.359C80.0197 159.178 80.2565 160.132 80.2565 161.22C80.2565 162.308 80.0133 163.268 79.5269 164.1C79.0533 164.919 78.4069 165.553 77.5877 166.001C76.7685 166.449 75.8597 166.673 74.8613 166.673ZM74.8613 165.137C75.4885 165.137 76.0773 164.99 76.6277 164.695C77.1781 164.401 77.6197 163.959 77.9525 163.37C78.2981 162.782 78.4709 162.065 78.4709 161.22C78.4709 160.375 78.3045 159.658 77.9717 159.07C77.6389 158.481 77.2037 158.046 76.6661 157.764C76.1285 157.47 75.5461 157.322 74.9189 157.322C74.2789 157.322 73.6901 157.47 73.1525 157.764C72.6277 158.046 72.2053 158.481 71.8853 159.07C71.5653 159.658 71.4053 160.375 71.4053 161.22C71.4053 162.078 71.5589 162.801 71.8661 163.39C72.1861 163.978 72.6085 164.42 73.1333 164.714C73.6581 164.996 74.2341 165.137 74.8613 165.137ZM87.0197 159.799C87.0197 158.494 87.3141 157.322 87.9029 156.286C88.4917 155.236 89.2917 154.417 90.3029 153.828C91.3269 153.239 92.4597 152.945 93.7013 152.945C95.1605 152.945 96.4341 153.297 97.5221 154.001C98.6101 154.705 99.4037 155.703 99.9029 156.996H97.8101C97.4389 156.19 96.9013 155.569 96.1973 155.134C95.5061 154.698 94.6741 154.481 93.7013 154.481C92.7669 154.481 91.9285 154.698 91.1861 155.134C90.4437 155.569 89.8613 156.19 89.4389 156.996C89.0165 157.79 88.8053 158.724 88.8053 159.799C88.8053 160.862 89.0165 161.796 89.4389 162.602C89.8613 163.396 90.4437 164.01 91.1861 164.446C91.9285 164.881 92.7669 165.098 93.7013 165.098C94.6741 165.098 95.5061 164.887 96.1973 164.465C96.9013 164.03 97.4389 163.409 97.8101 162.602H99.9029C99.4037 163.882 98.6101 164.874 97.5221 165.578C96.4341 166.27 95.1605 166.615 93.7013 166.615C92.4597 166.615 91.3269 166.327 90.3029 165.751C89.2917 165.162 88.4917 164.35 87.9029 163.313C87.3141 162.276 87.0197 161.105 87.0197 159.799ZM101.851 161.201C101.851 160.126 102.069 159.185 102.504 158.378C102.939 157.559 103.534 156.926 104.289 156.478C105.057 156.03 105.909 155.806 106.843 155.806C107.765 155.806 108.565 156.004 109.243 156.401C109.921 156.798 110.427 157.297 110.76 157.898V155.978H112.526V166.5H110.76V164.542C110.414 165.156 109.896 165.668 109.205 166.078C108.526 166.474 107.733 166.673 106.824 166.673C105.889 166.673 105.045 166.442 104.289 165.982C103.534 165.521 102.939 164.874 102.504 164.042C102.069 163.21 101.851 162.263 101.851 161.201ZM110.76 161.22C110.76 160.426 110.6 159.735 110.28 159.146C109.96 158.558 109.525 158.11 108.974 157.802C108.437 157.482 107.841 157.322 107.189 157.322C106.536 157.322 105.941 157.476 105.403 157.783C104.865 158.09 104.437 158.538 104.117 159.127C103.797 159.716 103.637 160.407 103.637 161.201C103.637 162.007 103.797 162.711 104.117 163.313C104.437 163.902 104.865 164.356 105.403 164.676C105.941 164.983 106.536 165.137 107.189 165.137C107.841 165.137 108.437 164.983 108.974 164.676C109.525 164.356 109.96 163.902 110.28 163.313C110.6 162.711 110.76 162.014 110.76 161.22ZM117.226 157.687C117.533 157.086 117.968 156.618 118.532 156.286C119.108 155.953 119.805 155.786 120.624 155.786V157.591H120.164C118.205 157.591 117.226 158.654 117.226 160.778V166.5H115.479V155.978H117.226V157.687ZM124.772 157.418V163.62C124.772 164.132 124.881 164.497 125.099 164.714C125.316 164.919 125.694 165.022 126.232 165.022H127.518V166.5H125.944C124.971 166.5 124.241 166.276 123.755 165.828C123.268 165.38 123.025 164.644 123.025 163.62V157.418H121.662V155.978H123.025V153.329H124.772V155.978H127.518V157.418H124.772Z" fill="white"/>
</g>
<path d="M147.6 152.8V167.2M140.4 160H154.8" stroke="white" stroke-width="1.8" stroke-linecap="round" stroke-linejoin="round"/>
<defs>
<clipPath id="clip0_2026_89">
<rect width="123.6" height="29" fill="white" transform="translate(9.6001 145.5)"/>
</clipPath>
</defs>
</svg>
