<svg width="326" height="174" viewBox="0 0 326 174" fill="none" xmlns="http://www.w3.org/2000/svg">
<path d="M96.2581 16.2571V36.9571H89.0002V16.2571H83.7178V8.95629H89.0002V5.30589H96.2581V8.95629V16.2571ZM121.254 37H100.081V28.8403C100.11 28.8116 100.196 28.7401 100.339 28.6255C100.511 28.511 100.64 28.4251 100.725 28.3679C100.84 28.282 100.969 28.1961 101.112 28.1102C101.255 27.9957 101.341 27.9241 101.37 27.8955L101.971 27.466C102.286 27.2656 102.486 27.1081 102.572 26.9936C103.46 26.3351 104.906 25.2471 106.91 23.7297C108.112 22.8422 109.329 21.8544 110.56 20.7664C111.505 19.9361 112.335 19.0772 113.051 18.1897C113.652 17.388 113.953 16.6579 113.953 15.9994C113.953 15.0833 113.638 14.3102 113.008 13.6803C112.378 13.0505 111.605 12.7355 110.689 12.7355C109.773 12.7355 109 13.0505 108.37 13.6803C107.711 14.3389 107.382 15.1119 107.382 15.9994H100.081C100.081 14.6252 100.368 13.2509 100.94 11.8766C101.484 10.5596 102.243 9.44302 103.216 8.52684C104.161 7.58203 105.278 6.82331 106.566 6.2507C107.769 5.70672 109.143 5.43473 110.689 5.43473C112.235 5.43473 113.609 5.70672 114.812 6.2507C116.1 6.82331 117.217 7.58203 118.161 8.52684C119.106 9.47165 119.865 10.5882 120.438 11.8766C120.982 13.0791 121.254 14.4534 121.254 15.9994C121.254 17.3451 121.025 18.5619 120.566 19.6498C120.108 20.7951 119.421 21.9117 118.505 22.9996C117.417 24.2594 116.343 25.3473 115.284 26.2635C113.938 27.466 112.536 28.6255 111.075 29.7421H121.254V37ZM129.362 17.6743C128.36 17.6743 127.486 17.3021 126.742 16.5577C125.998 15.8133 125.625 14.9401 125.625 13.938C125.625 12.8787 125.998 11.9768 126.742 11.2324C127.458 10.5167 128.331 10.1588 129.362 10.1588C130.45 10.1588 131.351 10.5167 132.067 11.2324C132.783 11.9482 133.141 12.8501 133.141 13.938C133.141 14.9687 132.783 15.842 132.067 16.5577C131.323 17.3021 130.421 17.6743 129.362 17.6743ZM129.362 24.8034C130.45 24.8034 131.351 25.1612 132.067 25.877C132.783 26.5928 133.141 27.4803 133.141 28.5396C133.141 29.599 132.783 30.4865 132.067 31.2023C131.323 31.9467 130.421 32.3189 129.362 32.3189C128.36 32.3189 127.486 31.9467 126.742 31.2023C125.998 30.4579 125.625 29.5704 125.625 28.5396C125.625 27.5089 125.998 26.6214 126.742 25.877C127.458 25.1612 128.331 24.8034 129.362 24.8034ZM155.447 20.3799C156.22 21.2961 156.835 22.3125 157.293 23.4291C157.751 24.4598 157.98 25.6623 157.98 27.0365C157.98 28.4108 157.723 29.7278 157.207 30.9876C156.635 32.2473 155.905 33.321 155.017 34.2085C154.101 35.1247 153.027 35.8405 151.796 36.3558C150.622 36.8998 149.305 37.1718 147.845 37.1718C146.385 37.1718 145.068 36.8998 143.894 36.3558C142.663 35.8405 141.589 35.1247 140.673 34.2085C139.757 33.2923 139.041 32.2187 138.526 30.9876C137.982 29.8137 137.71 28.4967 137.71 27.0365H145.011C145.011 27.8382 145.283 28.511 145.827 29.055C146.399 29.6276 147.072 29.9139 147.845 29.9139C148.618 29.9139 149.291 29.6276 149.864 29.055C150.408 28.511 150.68 27.8382 150.68 27.0365C150.68 26.2349 150.408 25.5621 149.864 25.0181C149.32 24.4741 148.647 24.2021 147.845 24.2021V24.1592H145.268V16.9013H147.845C148.475 16.9013 149.005 16.6723 149.434 16.2142C149.864 15.7847 150.078 15.255 150.078 14.6252C150.078 13.9953 149.864 13.4656 149.434 13.0362C149.005 12.6067 148.475 12.392 147.845 12.392C147.215 12.392 146.686 12.6067 146.256 13.0362C145.798 13.4656 145.569 13.9953 145.569 14.6252H138.311C138.311 13.2795 138.569 12.0341 139.084 10.8889C139.571 9.74364 140.244 8.74157 141.103 7.88265C141.962 7.02373 142.978 6.33659 144.152 5.82124C145.383 5.33452 146.614 5.09116 147.845 5.09116C149.105 5.09116 150.35 5.33452 151.581 5.82124C152.727 6.33659 153.729 7.02373 154.588 7.88265C155.447 8.74157 156.134 9.74364 156.649 10.8889C157.136 12.12 157.379 13.3654 157.379 14.6252C157.379 15.6845 157.207 16.7152 156.864 17.7173C156.549 18.6907 156.077 19.5783 155.447 20.3799ZM180.404 5.39178V37H173.146V31.417H160.477V24.1592L173.146 5.39178H180.404ZM173.146 24.1592V18.4044L169.238 24.1592H173.146ZM188.454 17.6743C187.452 17.6743 186.579 17.3021 185.835 16.5577C185.09 15.8133 184.718 14.9401 184.718 13.938C184.718 12.8787 185.09 11.9768 185.835 11.2324C186.55 10.5167 187.424 10.1588 188.454 10.1588C189.542 10.1588 190.444 10.5167 191.16 11.2324C191.876 11.9482 192.234 12.8501 192.234 13.938C192.234 14.9687 191.876 15.842 191.16 16.5577C190.415 17.3021 189.514 17.6743 188.454 17.6743ZM188.454 24.8034C189.542 24.8034 190.444 25.1612 191.16 25.877C191.876 26.5928 192.234 27.4803 192.234 28.5396C192.234 29.599 191.876 30.4865 191.16 31.2023C190.415 31.9467 189.514 32.3189 188.454 32.3189C187.452 32.3189 186.579 31.9467 185.835 31.2023C185.09 30.4579 184.718 29.5704 184.718 28.5396C184.718 27.5089 185.09 26.6214 185.835 25.877C186.55 25.1612 187.424 24.8034 188.454 24.8034ZM211.232 36.1411C209.858 36.7137 208.484 37 207.11 37C205.735 37 204.361 36.7137 202.987 36.1411C201.698 35.5971 200.582 34.8527 199.637 33.9079C198.692 32.9631 197.948 31.8465 197.404 30.5581C196.831 29.1838 196.545 27.8096 196.545 26.4353H203.803C203.803 27.3228 204.132 28.0959 204.791 28.7544C205.449 29.4129 206.222 29.7421 207.11 29.7421C207.997 29.7421 208.77 29.4129 209.429 28.7544C210.059 28.1245 210.373 27.3515 210.373 26.4353C210.373 25.5477 210.059 24.8034 209.429 24.2021C208.799 23.6009 208.026 23.3002 207.11 23.3002H196.545V5.34884H216.214V12.6067H203.803V16.0424H207.11C208.656 16.0424 210.03 16.3144 211.232 16.8584C212.492 17.4023 213.594 18.1467 214.539 19.0915C215.455 19.9791 216.214 21.0814 216.815 22.3984C217.359 23.5722 217.631 24.9179 217.631 26.4353C217.631 27.9814 217.359 29.3556 216.815 30.5581C216.243 31.8465 215.484 32.9631 214.539 33.9079C213.594 34.8527 212.492 35.5971 211.232 36.1411ZM231.337 14.2386C232.797 14.3532 234.157 14.7397 235.417 15.3982C236.648 16.0281 237.736 16.844 238.681 17.8461C239.597 18.8768 240.327 20.0507 240.871 21.3677C241.386 22.7133 241.644 24.1162 241.644 25.5764C241.644 27.1511 241.343 28.6255 240.742 29.9998C240.141 31.4027 239.325 32.6195 238.294 33.6502C237.263 34.6809 236.061 35.4969 234.687 36.0981C233.312 36.6994 231.838 37 230.263 37C228.688 37 227.214 36.6994 225.84 36.0981C224.437 35.4969 223.22 34.6809 222.189 33.6502C221.159 32.6195 220.343 31.4027 219.741 29.9998C219.14 28.6255 218.84 27.1511 218.84 25.5764C218.84 23.9444 219.212 22.3125 219.956 20.6805L227.643 5.43473H235.803L231.337 14.2386ZM230.263 29.6992C231.408 29.6992 232.382 29.2984 233.183 28.4967C233.985 27.695 234.386 26.7216 234.386 25.5764C234.386 24.9179 234.286 24.3739 234.085 23.9444C233.885 23.4577 233.584 23.0139 233.183 22.6131C232.811 22.2409 232.382 21.9403 231.895 21.7112C231.466 21.5108 230.922 21.4106 230.263 21.4106C229.605 21.4106 229.075 21.5108 228.674 21.7112C228.159 21.9403 227.715 22.2409 227.343 22.6131C226.942 23.0139 226.641 23.4577 226.441 23.9444C226.212 24.5457 226.097 25.0897 226.097 25.5764C226.097 26.0917 226.212 26.6214 226.441 27.1654C226.67 27.6807 226.971 28.1245 227.343 28.4967C227.715 28.8689 228.159 29.1552 228.674 29.3556C229.218 29.5847 229.748 29.6992 230.263 29.6992Z" fill="white"/>
<path d="M71.4327 68.7179L68.6474 74.0432V77.2703H67.5308V74.0432L64.7331 68.7179H65.9724L68.0829 73.0493L70.1934 68.7179H71.4327ZM75.5431 77.3807C74.9132 77.3807 74.3406 77.2375 73.8252 76.9512C73.318 76.6649 72.9172 76.26 72.6227 75.7365C72.3364 75.2048 72.1933 74.5913 72.1933 73.8959C72.1933 73.2088 72.3405 72.6035 72.635 72.0799C72.9377 71.5482 73.3467 71.1433 73.862 70.8652C74.3774 70.5789 74.9541 70.4357 75.5921 70.4357C76.2302 70.4357 76.8069 70.5789 77.3222 70.8652C77.8376 71.1433 78.2425 71.5441 78.537 72.0677C78.8397 72.5912 78.991 73.2006 78.991 73.8959C78.991 74.5913 78.8356 75.2048 78.5247 75.7365C78.2221 76.26 77.809 76.6649 77.2854 76.9512C76.7619 77.2375 76.1811 77.3807 75.5431 77.3807ZM75.5431 76.3991C75.9439 76.3991 76.3202 76.305 76.6719 76.1169C77.0237 75.9287 77.3059 75.6465 77.5186 75.2702C77.7394 74.8939 77.8499 74.4358 77.8499 73.8959C77.8499 73.356 77.7435 72.898 77.5308 72.5217C77.3182 72.1454 77.04 71.8673 76.6965 71.6873C76.3529 71.4991 75.9807 71.4051 75.5799 71.4051C75.1709 71.4051 74.7946 71.4991 74.451 71.6873C74.1156 71.8673 73.8457 72.1454 73.6412 72.5217C73.4367 72.898 73.3344 73.356 73.3344 73.8959C73.3344 74.444 73.4326 74.9062 73.6289 75.2825C73.8334 75.6588 74.1033 75.941 74.4387 76.1291C74.7741 76.3091 75.1422 76.3991 75.5431 76.3991ZM86.4225 70.5462V77.2703H85.3059V76.2764C85.0932 76.6199 84.7946 76.8899 84.4101 77.0862C84.0339 77.2744 83.6167 77.3684 83.1586 77.3684C82.635 77.3684 82.1647 77.2621 81.7475 77.0494C81.3303 76.8285 80.999 76.5013 80.7536 76.0678C80.5164 75.6342 80.3978 75.1066 80.3978 74.4849V70.5462H81.5021V74.3377C81.5021 75.0003 81.6698 75.5115 82.0052 75.8715C82.3406 76.2232 82.7986 76.3991 83.3794 76.3991C83.9766 76.3991 84.447 76.215 84.7905 75.8469C85.1341 75.4788 85.3059 74.943 85.3059 74.2395V70.5462H86.4225ZM91.1619 73.8959C91.1619 73.2006 91.3009 72.5953 91.579 72.0799C91.8572 71.5564 92.2416 71.1515 92.7325 70.8652C93.2314 70.5789 93.8 70.4357 94.438 70.4357C95.2642 70.4357 95.9432 70.6361 96.4749 71.037C97.0148 71.4378 97.3706 71.994 97.5424 72.7057H96.3399C96.2254 72.2967 96.0004 71.9736 95.665 71.7364C95.3378 71.4991 94.9288 71.3805 94.438 71.3805C93.8 71.3805 93.2846 71.6014 92.892 72.0431C92.4993 72.4767 92.303 73.0943 92.303 73.8959C92.303 74.7058 92.4993 75.3316 92.892 75.7733C93.2846 76.215 93.8 76.4359 94.438 76.4359C94.9288 76.4359 95.3378 76.3214 95.665 76.0923C95.9923 75.8633 96.2172 75.5361 96.3399 75.1107H97.5424C97.3624 75.7978 97.0025 76.35 96.4626 76.7672C95.9227 77.1762 95.2479 77.3807 94.438 77.3807C93.8 77.3807 93.2314 77.2375 92.7325 76.9512C92.2416 76.6649 91.8572 76.26 91.579 75.7365C91.3009 75.2129 91.1619 74.5994 91.1619 73.8959ZM98.6151 73.8837C98.6151 73.1965 98.7542 72.5953 99.0323 72.0799C99.3104 71.5564 99.6908 71.1515 100.173 70.8652C100.664 70.5789 101.208 70.4357 101.805 70.4357C102.394 70.4357 102.906 70.5625 103.339 70.8161C103.773 71.0697 104.096 71.3887 104.308 71.7732V70.5462H105.437V77.2703H104.308V76.0187C104.088 76.4113 103.756 76.7386 103.315 77.0003C102.881 77.2539 102.374 77.3807 101.793 77.3807C101.196 77.3807 100.656 77.2335 100.173 76.939C99.6908 76.6445 99.3104 76.2314 99.0323 75.6997C98.7542 75.168 98.6151 74.5626 98.6151 73.8837ZM104.308 73.8959C104.308 73.3888 104.206 72.947 104.002 72.5707C103.797 72.1945 103.519 71.9082 103.167 71.7118C102.824 71.5073 102.443 71.4051 102.026 71.4051C101.609 71.4051 101.229 71.5032 100.885 71.6996C100.542 71.8959 100.267 72.1822 100.063 72.5585C99.8585 72.9348 99.7562 73.3765 99.7562 73.8837C99.7562 74.399 99.8585 74.8489 100.063 75.2334C100.267 75.6097 100.542 75.9001 100.885 76.1046C101.229 76.3009 101.609 76.3991 102.026 76.3991C102.443 76.3991 102.824 76.3009 103.167 76.1046C103.519 75.9001 103.797 75.6097 104.002 75.2334C104.206 74.8489 104.308 74.4031 104.308 73.8959ZM110.6 70.4235C111.418 70.4235 112.081 70.6729 112.588 71.1719C113.095 71.6628 113.349 72.3744 113.349 73.307V77.2703H112.245V73.4665C112.245 72.7957 112.077 72.2844 111.742 71.9327C111.406 71.5728 110.948 71.3928 110.367 71.3928C109.778 71.3928 109.308 71.5769 108.956 71.945C108.613 72.3131 108.441 72.8489 108.441 73.5524V77.2703H107.324V70.5462H108.441V71.5032C108.662 71.1597 108.96 70.8938 109.337 70.7057C109.721 70.5175 110.142 70.4235 110.6 70.4235ZM118.027 73.8959C118.027 73.2006 118.166 72.5953 118.444 72.0799C118.722 71.5564 119.107 71.1515 119.598 70.8652C120.097 70.5789 120.665 70.4357 121.303 70.4357C122.129 70.4357 122.808 70.6361 123.34 71.037C123.88 71.4378 124.236 71.994 124.408 72.7057H123.205C123.091 72.2967 122.866 71.9736 122.53 71.7364C122.203 71.4991 121.794 71.3805 121.303 71.3805C120.665 71.3805 120.15 71.6014 119.757 72.0431C119.365 72.4767 119.168 73.0943 119.168 73.8959C119.168 74.7058 119.365 75.3316 119.757 75.7733C120.15 76.215 120.665 76.4359 121.303 76.4359C121.794 76.4359 122.203 76.3214 122.53 76.0923C122.857 75.8633 123.082 75.5361 123.205 75.1107H124.408C124.228 75.7978 123.868 76.35 123.328 76.7672C122.788 77.1762 122.113 77.3807 121.303 77.3807C120.665 77.3807 120.097 77.2375 119.598 76.9512C119.107 76.6649 118.722 76.26 118.444 75.7365C118.166 75.2129 118.027 74.5994 118.027 73.8959ZM129.235 70.4235C129.742 70.4235 130.2 70.5339 130.609 70.7547C131.018 70.9674 131.337 71.2906 131.566 71.7241C131.804 72.1577 131.922 72.6853 131.922 73.307V77.2703H130.818V73.4665C130.818 72.7957 130.65 72.2844 130.315 71.9327C129.979 71.5728 129.521 71.3928 128.94 71.3928C128.352 71.3928 127.881 71.5769 127.529 71.945C127.186 72.3131 127.014 72.8489 127.014 73.5524V77.2703H125.897V68.1903H127.014V71.5032C127.235 71.1597 127.538 70.8938 127.922 70.7057C128.315 70.5175 128.752 70.4235 129.235 70.4235ZM133.329 73.8837C133.329 73.1965 133.468 72.5953 133.746 72.0799C134.024 71.5564 134.405 71.1515 134.887 70.8652C135.378 70.5789 135.922 70.4357 136.519 70.4357C137.108 70.4357 137.619 70.5625 138.053 70.8161C138.487 71.0697 138.81 71.3887 139.022 71.7732V70.5462H140.151V77.2703H139.022V76.0187C138.801 76.4113 138.47 76.7386 138.028 77.0003C137.595 77.2539 137.088 77.3807 136.507 77.3807C135.91 77.3807 135.37 77.2335 134.887 76.939C134.405 76.6445 134.024 76.2314 133.746 75.6997C133.468 75.168 133.329 74.5626 133.329 73.8837ZM139.022 73.8959C139.022 73.3888 138.92 72.947 138.716 72.5707C138.511 72.1945 138.233 71.9082 137.881 71.7118C137.538 71.5073 137.157 71.4051 136.74 71.4051C136.323 71.4051 135.942 71.5032 135.599 71.6996C135.255 71.8959 134.981 72.1822 134.777 72.5585C134.572 72.9348 134.47 73.3765 134.47 73.8837C134.47 74.399 134.572 74.8489 134.777 75.2334C134.981 75.6097 135.255 75.9001 135.599 76.1046C135.942 76.3009 136.323 76.3991 136.74 76.3991C137.157 76.3991 137.538 76.3009 137.881 76.1046C138.233 75.9001 138.511 75.6097 138.716 75.2334C138.92 74.8489 139.022 74.4031 139.022 73.8959ZM145.314 70.4235C146.132 70.4235 146.795 70.6729 147.302 71.1719C147.809 71.6628 148.063 72.3744 148.063 73.307V77.2703H146.959V73.4665C146.959 72.7957 146.791 72.2844 146.455 71.9327C146.12 71.5728 145.662 71.3928 145.081 71.3928C144.492 71.3928 144.022 71.5769 143.67 71.945C143.327 72.3131 143.155 72.8489 143.155 73.5524V77.2703H142.038V70.5462H143.155V71.5032C143.376 71.1597 143.674 70.8938 144.05 70.7057C144.435 70.5175 144.856 70.4235 145.314 70.4235ZM152.66 70.4357C153.241 70.4357 153.748 70.5625 154.181 70.8161C154.623 71.0697 154.95 71.3887 155.163 71.7732V70.5462H156.292V77.4175C156.292 78.031 156.161 78.575 155.899 79.0495C155.637 79.5321 155.261 79.9084 154.77 80.1783C154.288 80.4483 153.723 80.5832 153.077 80.5832C152.194 80.5832 151.457 80.3746 150.868 79.9575C150.279 79.5403 149.932 78.9717 149.825 78.2519H150.93C151.052 78.6609 151.306 78.9881 151.691 79.2335C152.075 79.4871 152.537 79.6139 153.077 79.6139C153.691 79.6139 154.19 79.4217 154.574 79.0372C154.967 78.6527 155.163 78.1128 155.163 77.4175V76.0064C154.942 76.3991 154.615 76.7263 154.181 76.988C153.748 77.2498 153.241 77.3807 152.66 77.3807C152.063 77.3807 151.519 77.2335 151.028 76.939C150.545 76.6445 150.165 76.2314 149.887 75.6997C149.609 75.168 149.47 74.5626 149.47 73.8837C149.47 73.1965 149.609 72.5953 149.887 72.0799C150.165 71.5564 150.545 71.1515 151.028 70.8652C151.519 70.5789 152.063 70.4357 152.66 70.4357ZM155.163 73.8959C155.163 73.3888 155.061 72.947 154.856 72.5707C154.652 72.1945 154.374 71.9082 154.022 71.7118C153.678 71.5073 153.298 71.4051 152.881 71.4051C152.464 71.4051 152.083 71.5032 151.74 71.6996C151.396 71.8959 151.122 72.1822 150.917 72.5585C150.713 72.9348 150.611 73.3765 150.611 73.8837C150.611 74.399 150.713 74.8489 150.917 75.2334C151.122 75.6097 151.396 75.9001 151.74 76.1046C152.083 76.3009 152.464 76.3991 152.881 76.3991C153.298 76.3991 153.678 76.3009 154.022 76.1046C154.374 75.9001 154.652 75.6097 154.856 75.2334C155.061 74.8489 155.163 74.4031 155.163 73.8959ZM164.314 73.6505C164.314 73.8632 164.302 74.0882 164.277 74.3254H158.903C158.944 74.988 159.169 75.5074 159.578 75.8837C159.995 76.2518 160.498 76.4359 161.087 76.4359C161.57 76.4359 161.97 76.3255 162.289 76.1046C162.617 75.8755 162.846 75.5729 162.976 75.1966H164.179C163.999 75.8428 163.639 76.3704 163.099 76.7795C162.559 77.1803 161.889 77.3807 161.087 77.3807C160.449 77.3807 159.876 77.2375 159.369 76.9512C158.87 76.6649 158.477 76.26 158.191 75.7365C157.905 75.2048 157.762 74.5913 157.762 73.8959C157.762 73.2006 157.901 72.5912 158.179 72.0677C158.457 71.5441 158.846 71.1433 159.344 70.8652C159.852 70.5789 160.432 70.4357 161.087 70.4357C161.725 70.4357 162.289 70.5748 162.78 70.8529C163.271 71.131 163.647 71.5155 163.909 72.0063C164.179 72.4889 164.314 73.037 164.314 73.6505ZM163.161 73.4174C163.161 72.992 163.066 72.628 162.878 72.3253C162.69 72.0145 162.433 71.7814 162.105 71.6259C161.786 71.4623 161.43 71.3805 161.038 71.3805C160.473 71.3805 159.991 71.5605 159.59 71.9204C159.197 72.2804 158.972 72.7793 158.915 73.4174H163.161ZM174.851 70.5462L170.801 80.436H169.648L170.973 77.1966L168.262 70.5462H169.501L171.611 75.9942L173.697 70.5462H174.851ZM178.906 77.3807C178.276 77.3807 177.703 77.2375 177.188 76.9512C176.681 76.6649 176.28 76.26 175.985 75.7365C175.699 75.2048 175.556 74.5913 175.556 73.8959C175.556 73.2088 175.703 72.6035 175.998 72.0799C176.3 71.5482 176.709 71.1433 177.225 70.8652C177.74 70.5789 178.317 70.4357 178.955 70.4357C179.593 70.4357 180.17 70.5789 180.685 70.8652C181.2 71.1433 181.605 71.5441 181.9 72.0677C182.202 72.5912 182.354 73.2006 182.354 73.8959C182.354 74.5913 182.198 75.2048 181.887 75.7365C181.585 76.26 181.172 76.6649 180.648 76.9512C180.125 77.2375 179.544 77.3807 178.906 77.3807ZM178.906 76.3991C179.307 76.3991 179.683 76.305 180.035 76.1169C180.386 75.9287 180.669 75.6465 180.881 75.2702C181.102 74.8939 181.213 74.4358 181.213 73.8959C181.213 73.356 181.106 72.898 180.893 72.5217C180.681 72.1454 180.403 71.8673 180.059 71.6873C179.716 71.4991 179.343 71.4051 178.943 71.4051C178.534 71.4051 178.157 71.4991 177.814 71.6873C177.478 71.8673 177.208 72.1454 177.004 72.5217C176.799 72.898 176.697 73.356 176.697 73.8959C176.697 74.444 176.795 74.9062 176.992 75.2825C177.196 75.6588 177.466 75.941 177.801 76.1291C178.137 76.3091 178.505 76.3991 178.906 76.3991ZM189.785 70.5462V77.2703H188.669V76.2764C188.456 76.6199 188.157 76.8899 187.773 77.0862C187.397 77.2744 186.979 77.3684 186.521 77.3684C185.998 77.3684 185.527 77.2621 185.11 77.0494C184.693 76.8285 184.362 76.5013 184.116 76.0678C183.879 75.6342 183.76 75.1066 183.76 74.4849V70.5462H184.865V74.3377C184.865 75.0003 185.032 75.5115 185.368 75.8715C185.703 76.2232 186.161 76.3991 186.742 76.3991C187.339 76.3991 187.81 76.215 188.153 75.8469C188.497 75.4788 188.669 74.943 188.669 74.2395V70.5462H189.785ZM192.787 71.6382C192.983 71.2537 193.261 70.9552 193.621 70.7425C193.99 70.5298 194.435 70.4235 194.959 70.4235V71.5769H194.664C193.413 71.5769 192.787 72.2558 192.787 73.6137V77.2703H191.67V70.5462H192.787V71.6382ZM202.452 77.3807C201.822 77.3807 201.249 77.2375 200.734 76.9512C200.227 76.6649 199.826 76.26 199.531 75.7365C199.245 75.2048 199.102 74.5913 199.102 73.8959C199.102 73.2088 199.249 72.6035 199.544 72.0799C199.846 71.5482 200.255 71.1433 200.771 70.8652C201.286 70.5789 201.863 70.4357 202.501 70.4357C203.139 70.4357 203.716 70.5789 204.231 70.8652C204.746 71.1433 205.151 71.5441 205.446 72.0677C205.748 72.5912 205.9 73.2006 205.9 73.8959C205.9 74.5913 205.744 75.2048 205.433 75.7365C205.131 76.26 204.718 76.6649 204.194 76.9512C203.671 77.2375 203.09 77.3807 202.452 77.3807ZM202.452 76.3991C202.852 76.3991 203.229 76.305 203.581 76.1169C203.932 75.9287 204.214 75.6465 204.427 75.2702C204.648 74.8939 204.758 74.4358 204.758 73.8959C204.758 73.356 204.652 72.898 204.439 72.5217C204.227 72.1454 203.949 71.8673 203.605 71.6873C203.262 71.4991 202.889 71.4051 202.488 71.4051C202.079 71.4051 201.703 71.4991 201.36 71.6873C201.024 71.8673 200.754 72.1454 200.55 72.5217C200.345 72.898 200.243 73.356 200.243 73.8959C200.243 74.444 200.341 74.9062 200.538 75.2825C200.742 75.6588 201.012 75.941 201.347 76.1291C201.683 76.3091 202.051 76.3991 202.452 76.3991ZM208.484 71.6382C208.681 71.2537 208.959 70.9552 209.319 70.7425C209.687 70.5298 210.133 70.4235 210.656 70.4235V71.5769H210.362C209.11 71.5769 208.484 72.2558 208.484 73.6137V77.2703H207.368V70.5462H208.484V71.6382ZM211.528 73.8837C211.528 73.1965 211.667 72.5953 211.945 72.0799C212.223 71.5564 212.604 71.1515 213.086 70.8652C213.577 70.5789 214.125 70.4357 214.73 70.4357C215.254 70.4357 215.741 70.5584 216.191 70.8038C216.641 71.0411 216.984 71.356 217.221 71.7486V68.1903H218.35V77.2703H217.221V76.0064C217 76.4073 216.673 76.7386 216.24 77.0003C215.806 77.2539 215.299 77.3807 214.718 77.3807C214.121 77.3807 213.577 77.2335 213.086 76.939C212.604 76.6445 212.223 76.2314 211.945 75.6997C211.667 75.168 211.528 74.5626 211.528 73.8837ZM217.221 73.8959C217.221 73.3888 217.119 72.947 216.915 72.5707C216.71 72.1945 216.432 71.9082 216.08 71.7118C215.737 71.5073 215.356 71.4051 214.939 71.4051C214.522 71.4051 214.142 71.5032 213.798 71.6996C213.454 71.8959 213.18 72.1822 212.976 72.5585C212.771 72.9348 212.669 73.3765 212.669 73.8837C212.669 74.399 212.771 74.8489 212.976 75.2334C213.18 75.6097 213.454 75.9001 213.798 76.1046C214.142 76.3009 214.522 76.3991 214.939 76.3991C215.356 76.3991 215.737 76.3009 216.08 76.1046C216.432 75.9001 216.71 75.6097 216.915 75.2334C217.119 74.8489 217.221 74.4031 217.221 73.8959ZM226.372 73.6505C226.372 73.8632 226.36 74.0882 226.335 74.3254H220.961C221.002 74.988 221.227 75.5074 221.636 75.8837C222.053 76.2518 222.556 76.4359 223.145 76.4359C223.628 76.4359 224.029 76.3255 224.348 76.1046C224.675 75.8755 224.904 75.5729 225.035 75.1966H226.237C226.057 75.8428 225.697 76.3704 225.158 76.7795C224.618 77.1803 223.947 77.3807 223.145 77.3807C222.507 77.3807 221.935 77.2375 221.427 76.9512C220.928 76.6649 220.536 76.26 220.249 75.7365C219.963 75.2048 219.82 74.5913 219.82 73.8959C219.82 73.2006 219.959 72.5912 220.237 72.0677C220.515 71.5441 220.904 71.1433 221.403 70.8652C221.91 70.5789 222.491 70.4357 223.145 70.4357C223.783 70.4357 224.348 70.5748 224.838 70.8529C225.329 71.131 225.706 71.5155 225.967 72.0063C226.237 72.4889 226.372 73.037 226.372 73.6505ZM225.219 73.4174C225.219 72.992 225.125 72.628 224.937 72.3253C224.749 72.0145 224.491 71.7814 224.164 71.6259C223.845 71.4623 223.489 71.3805 223.096 71.3805C222.532 71.3805 222.049 71.5605 221.648 71.9204C221.256 72.2804 221.031 72.7793 220.973 73.4174H225.219ZM228.963 71.6382C229.159 71.2537 229.437 70.9552 229.797 70.7425C230.165 70.5298 230.611 70.4235 231.135 70.4235V71.5769H230.84C229.589 71.5769 228.963 72.2558 228.963 73.6137V77.2703H227.846V70.5462H228.963V71.6382ZM241.658 70.5462V77.2703H240.542V76.2764C240.329 76.6199 240.03 76.8899 239.646 77.0862C239.27 77.2744 238.852 77.3684 238.394 77.3684C237.871 77.3684 237.4 77.2621 236.983 77.0494C236.566 76.8285 236.235 76.5013 235.989 76.0678C235.752 75.6342 235.633 75.1066 235.633 74.4849V70.5462H236.738V74.3377C236.738 75.0003 236.905 75.5115 237.241 75.8715C237.576 76.2232 238.034 76.3991 238.615 76.3991C239.212 76.3991 239.683 76.215 240.026 75.8469C240.37 75.4788 240.542 74.943 240.542 74.2395V70.5462H241.658ZM246.82 70.4235C247.638 70.4235 248.3 70.6729 248.807 71.1719C249.315 71.6628 249.568 72.3744 249.568 73.307V77.2703H248.464V73.4665C248.464 72.7957 248.296 72.2844 247.961 71.9327C247.625 71.5728 247.167 71.3928 246.587 71.3928C245.998 71.3928 245.527 71.5769 245.175 71.945C244.832 72.3131 244.66 72.8489 244.66 73.5524V77.2703H243.543V70.5462H244.66V71.5032C244.881 71.1597 245.18 70.8938 245.556 70.7057C245.94 70.5175 246.362 70.4235 246.82 70.4235ZM252.754 71.4664V75.4297C252.754 75.7569 252.824 75.9901 252.963 76.1291C253.102 76.26 253.343 76.3255 253.687 76.3255H254.509V77.2703H253.503C252.881 77.2703 252.415 77.1271 252.104 76.8408C251.793 76.5545 251.638 76.0841 251.638 75.4297V71.4664H250.766V70.5462H251.638V68.8529H252.754V70.5462H254.509V71.4664H252.754ZM256.438 69.4541C256.226 69.4541 256.046 69.3805 255.898 69.2332C255.751 69.086 255.678 68.906 255.678 68.6933C255.678 68.4807 255.751 68.3007 255.898 68.1535C256.046 68.0062 256.226 67.9326 256.438 67.9326C256.643 67.9326 256.815 68.0062 256.954 68.1535C257.101 68.3007 257.175 68.4807 257.175 68.6933C257.175 68.906 257.101 69.086 256.954 69.2332C256.815 69.3805 256.643 69.4541 256.438 69.4541ZM256.978 70.5462V77.2703H255.862V70.5462H256.978ZM259.998 68.1903V77.2703H258.881V68.1903H259.998Z" fill="white" fill-opacity="0.56"/>
<path d="M51.5646 100.85V108.749C51.5646 109.628 51.2936 110.334 50.7517 110.866C50.2098 111.387 49.494 111.648 48.6044 111.648C47.7046 111.648 46.9837 111.382 46.4418 110.85C45.8998 110.308 45.6289 109.572 45.6289 108.642H47.0246C47.0348 109.163 47.1677 109.588 47.4234 109.915C47.6892 110.242 48.0829 110.406 48.6044 110.406C49.1259 110.406 49.5144 110.252 49.7701 109.945C50.0257 109.628 50.1535 109.23 50.1535 108.749V100.85H51.5646ZM53.7928 107.307C53.7928 106.448 53.9666 105.697 54.3143 105.053C54.6619 104.398 55.1374 103.892 55.7407 103.534C56.3542 103.176 57.0342 102.997 57.7806 102.997C58.5168 102.997 59.1559 103.156 59.6978 103.473C60.2398 103.79 60.6437 104.189 60.9095 104.669V103.135H62.3206V111.541H60.9095V109.976C60.6335 110.467 60.2193 110.876 59.6672 111.203C59.1252 111.52 58.4913 111.679 57.7653 111.679C57.0188 111.679 56.344 111.495 55.7407 111.126C55.1374 110.758 54.6619 110.242 54.3143 109.577C53.9666 108.913 53.7928 108.156 53.7928 107.307ZM60.9095 107.323C60.9095 106.689 60.7817 106.136 60.5261 105.666C60.2705 105.196 59.9228 104.838 59.4831 104.592C59.0537 104.337 58.5782 104.209 58.0567 104.209C57.5352 104.209 57.0597 104.332 56.6303 104.577C56.2008 104.823 55.8583 105.18 55.6026 105.651C55.347 106.121 55.2192 106.673 55.2192 107.307C55.2192 107.951 55.347 108.514 55.6026 108.994C55.8583 109.465 56.2008 109.828 56.6303 110.083C57.0597 110.329 57.5352 110.452 58.0567 110.452C58.5782 110.452 59.0537 110.329 59.4831 110.083C59.9228 109.828 60.2705 109.465 60.5261 108.994C60.7817 108.514 60.9095 107.957 60.9095 107.323ZM68.7745 102.982C69.797 102.982 70.6253 103.294 71.2592 103.918C71.8932 104.531 72.2102 105.421 72.2102 106.586V111.541H70.8298V106.786C70.8298 105.947 70.6201 105.308 70.2009 104.869C69.7817 104.419 69.2091 104.194 68.4831 104.194C67.7469 104.194 67.1589 104.424 66.7192 104.884C66.2898 105.344 66.075 106.014 66.075 106.893V111.541H64.6793V103.135H66.075V104.332C66.3511 103.902 66.7243 103.57 67.1947 103.335C67.6753 103.1 68.2019 102.982 68.7745 102.982ZM81.9443 103.135V111.541H80.5486V110.298C80.2827 110.728 79.9095 111.065 79.4289 111.31C78.9585 111.546 78.437 111.663 77.8644 111.663C77.21 111.663 76.6221 111.53 76.1006 111.264C75.5791 110.988 75.165 110.579 74.8582 110.037C74.5617 109.495 74.4134 108.836 74.4134 108.059V103.135H75.7938V107.875C75.7938 108.703 76.0034 109.342 76.4227 109.792C76.8419 110.232 77.4145 110.452 78.1405 110.452C78.887 110.452 79.4749 110.221 79.9044 109.761C80.3338 109.301 80.5486 108.631 80.5486 107.752V103.135H81.9443ZM83.7794 107.307C83.7794 106.448 83.9533 105.697 84.3009 105.053C84.6486 104.398 85.1241 103.892 85.7274 103.534C86.3409 103.176 87.0208 102.997 87.7673 102.997C88.5035 102.997 89.1426 103.156 89.6845 103.473C90.2265 103.79 90.6303 104.189 90.8962 104.669V103.135H92.3073V111.541H90.8962V109.976C90.6201 110.467 90.206 110.876 89.6538 111.203C89.1119 111.52 88.4779 111.679 87.7519 111.679C87.0055 111.679 86.3306 111.495 85.7274 111.126C85.1241 110.758 84.6486 110.242 84.3009 109.577C83.9533 108.913 83.7794 108.156 83.7794 107.307ZM90.8962 107.323C90.8962 106.689 90.7684 106.136 90.5128 105.666C90.2571 105.196 89.9095 104.838 89.4698 104.592C89.0403 104.337 88.5649 104.209 88.0434 104.209C87.5219 104.209 87.0464 104.332 86.6169 104.577C86.1875 104.823 85.8449 105.18 85.5893 105.651C85.3337 106.121 85.2059 106.673 85.2059 107.307C85.2059 107.951 85.3337 108.514 85.5893 108.994C85.8449 109.465 86.1875 109.828 86.6169 110.083C87.0464 110.329 87.5219 110.452 88.0434 110.452C88.5649 110.452 89.0403 110.329 89.4698 110.083C89.9095 109.828 90.2571 109.465 90.5128 108.994C90.7684 108.514 90.8962 107.957 90.8962 107.323ZM96.0617 104.5C96.3071 104.02 96.6548 103.647 97.1047 103.381C97.5648 103.115 98.1221 102.982 98.7765 102.982V104.424H98.4084C96.8439 104.424 96.0617 105.272 96.0617 106.97V111.541H94.666V103.135H96.0617V104.5ZM107.627 103.135L102.566 115.498H101.124L102.78 111.449L99.3907 103.135H100.94L103.578 109.945L106.185 103.135H107.627ZM112.721 110.421C114.019 109.378 115.037 108.524 115.773 107.859C116.509 107.185 117.128 106.484 117.629 105.758C118.14 105.022 118.396 104.301 118.396 103.596C118.396 102.931 118.232 102.409 117.905 102.031C117.588 101.643 117.071 101.448 116.356 101.448C115.66 101.448 115.118 101.668 114.73 102.108C114.351 102.537 114.147 103.115 114.116 103.841H112.767C112.807 102.696 113.155 101.811 113.809 101.187C114.464 100.564 115.307 100.252 116.34 100.252C117.393 100.252 118.227 100.543 118.84 101.126C119.464 101.709 119.776 102.512 119.776 103.534C119.776 104.383 119.52 105.211 119.009 106.019C118.508 106.816 117.935 107.522 117.291 108.136C116.647 108.739 115.824 109.444 114.822 110.252H120.098V111.418H112.721V110.421ZM128.782 101.663H123.399V105.16C123.634 104.833 123.981 104.567 124.442 104.362C124.902 104.148 125.398 104.04 125.929 104.04C126.778 104.04 127.468 104.219 128 104.577C128.532 104.925 128.91 105.38 129.135 105.942C129.37 106.494 129.488 107.082 129.488 107.706C129.488 108.442 129.35 109.102 129.074 109.685C128.798 110.267 128.373 110.728 127.801 111.065C127.238 111.402 126.538 111.571 125.699 111.571C124.626 111.571 123.757 111.295 123.092 110.743C122.427 110.191 122.023 109.455 121.88 108.534H123.245C123.378 109.117 123.659 109.572 124.089 109.899C124.518 110.227 125.06 110.39 125.715 110.39C126.522 110.39 127.131 110.15 127.54 109.669C127.949 109.179 128.153 108.534 128.153 107.737C128.153 106.939 127.949 106.326 127.54 105.896C127.131 105.457 126.528 105.237 125.73 105.237C125.188 105.237 124.713 105.37 124.304 105.635C123.905 105.891 123.613 106.244 123.429 106.694H122.11V100.436H128.782V101.663ZM133.014 109.608L131.297 113.734H130.361L131.481 109.608H133.014ZM138.304 110.421C139.602 109.378 140.62 108.524 141.356 107.859C142.092 107.185 142.711 106.484 143.212 105.758C143.723 105.022 143.979 104.301 143.979 103.596C143.979 102.931 143.815 102.409 143.488 102.031C143.171 101.643 142.654 101.448 141.939 101.448C141.243 101.448 140.701 101.668 140.313 102.108C139.934 102.537 139.73 103.115 139.699 103.841H138.35C138.39 102.696 138.738 101.811 139.393 101.187C140.047 100.564 140.891 100.252 141.923 100.252C142.976 100.252 143.81 100.543 144.423 101.126C145.047 101.709 145.359 102.512 145.359 103.534C145.359 104.383 145.103 105.211 144.592 106.019C144.091 106.816 143.518 107.522 142.874 108.136C142.23 108.739 141.407 109.444 140.405 110.252H145.681V111.418H138.304V110.421ZM147.295 105.881C147.295 104.122 147.581 102.752 148.153 101.77C148.726 100.778 149.728 100.283 151.16 100.283C152.581 100.283 153.578 100.778 154.151 101.77C154.723 102.752 155.009 104.122 155.009 105.881C155.009 107.67 154.723 109.061 154.151 110.053C153.578 111.045 152.581 111.541 151.16 111.541C149.728 111.541 148.726 111.045 148.153 110.053C147.581 109.061 147.295 107.67 147.295 105.881ZM153.629 105.881C153.629 104.991 153.568 104.24 153.445 103.626C153.333 103.002 153.092 102.501 152.724 102.123C152.366 101.745 151.845 101.556 151.16 101.556C150.464 101.556 149.933 101.745 149.565 102.123C149.207 102.501 148.966 103.002 148.844 103.626C148.731 104.24 148.675 104.991 148.675 105.881C148.675 106.801 148.731 107.573 148.844 108.197C148.966 108.821 149.207 109.322 149.565 109.7C149.933 110.078 150.464 110.267 151.16 110.267C151.845 110.267 152.366 110.078 152.724 109.7C153.092 109.322 153.333 108.821 153.445 108.197C153.568 107.573 153.629 106.801 153.629 105.881ZM156.757 110.421C158.055 109.378 159.073 108.524 159.809 107.859C160.545 107.185 161.164 106.484 161.665 105.758C162.176 105.022 162.432 104.301 162.432 103.596C162.432 102.931 162.268 102.409 161.941 102.031C161.624 101.643 161.108 101.448 160.392 101.448C159.697 101.448 159.155 101.668 158.766 102.108C158.388 102.537 158.183 103.115 158.153 103.841H156.803C156.844 102.696 157.191 101.811 157.846 101.187C158.5 100.564 159.344 100.252 160.377 100.252C161.43 100.252 162.263 100.543 162.877 101.126C163.5 101.709 163.812 102.512 163.812 103.534C163.812 104.383 163.557 105.211 163.045 106.019C162.544 106.816 161.972 107.522 161.328 108.136C160.683 108.739 159.86 109.444 158.858 110.252H164.134V111.418H156.757V110.421ZM172.819 101.663H167.435V105.16C167.67 104.833 168.018 104.567 168.478 104.362C168.938 104.148 169.434 104.04 169.966 104.04C170.814 104.04 171.505 104.219 172.036 104.577C172.568 104.925 172.946 105.38 173.171 105.942C173.407 106.494 173.524 107.082 173.524 107.706C173.524 108.442 173.386 109.102 173.11 109.685C172.834 110.267 172.41 110.728 171.837 111.065C171.275 111.402 170.574 111.571 169.736 111.571C168.662 111.571 167.793 111.295 167.128 110.743C166.464 110.191 166.06 109.455 165.917 108.534H167.282C167.415 109.117 167.696 109.572 168.125 109.899C168.555 110.227 169.097 110.39 169.751 110.39C170.559 110.39 171.167 110.15 171.576 109.669C171.985 109.179 172.19 108.534 172.19 107.737C172.19 106.939 171.985 106.326 171.576 105.896C171.167 105.457 170.564 105.237 169.766 105.237C169.224 105.237 168.749 105.37 168.34 105.635C167.941 105.891 167.65 106.244 167.466 106.694H166.147V100.436H172.819V101.663ZM177.051 109.608L175.333 113.734H174.397L175.517 109.608H177.051ZM182.509 105.881C182.509 104.122 182.795 102.752 183.368 101.77C183.94 100.778 184.942 100.283 186.374 100.283C187.795 100.283 188.792 100.778 189.365 101.77C189.937 102.752 190.224 104.122 190.224 105.881C190.224 107.67 189.937 109.061 189.365 110.053C188.792 111.045 187.795 111.541 186.374 111.541C184.942 111.541 183.94 111.045 183.368 110.053C182.795 109.061 182.509 107.67 182.509 105.881ZM188.843 105.881C188.843 104.991 188.782 104.24 188.659 103.626C188.547 103.002 188.306 102.501 187.938 102.123C187.58 101.745 187.059 101.556 186.374 101.556C185.678 101.556 185.147 101.745 184.779 102.123C184.421 102.501 184.18 103.002 184.058 103.626C183.945 104.24 183.889 104.991 183.889 105.881C183.889 106.801 183.945 107.573 184.058 108.197C184.18 108.821 184.421 109.322 184.779 109.7C185.147 110.078 185.678 110.267 186.374 110.267C187.059 110.267 187.58 110.078 187.938 109.7C188.306 109.322 188.547 108.821 188.659 108.197C188.782 107.573 188.843 106.801 188.843 105.881ZM193.934 108.565C194.036 109.148 194.272 109.598 194.64 109.915C195.018 110.232 195.524 110.39 196.158 110.39C197.007 110.39 197.631 110.058 198.029 109.393C198.438 108.729 198.633 107.609 198.612 106.034C198.398 106.494 198.04 106.857 197.539 107.123C197.038 107.379 196.48 107.507 195.867 107.507C195.182 107.507 194.568 107.369 194.026 107.093C193.495 106.806 193.075 106.392 192.769 105.85C192.462 105.308 192.308 104.654 192.308 103.887C192.308 102.793 192.625 101.913 193.259 101.249C193.893 100.574 194.793 100.237 195.959 100.237C197.39 100.237 198.392 100.702 198.965 101.632C199.548 102.563 199.839 103.948 199.839 105.789C199.839 107.077 199.722 108.141 199.487 108.979C199.262 109.818 198.873 110.457 198.321 110.896C197.779 111.336 197.032 111.556 196.082 111.556C195.039 111.556 194.226 111.275 193.643 110.712C193.06 110.15 192.728 109.434 192.646 108.565H193.934ZM196.097 106.326C196.782 106.326 197.344 106.116 197.784 105.697C198.224 105.267 198.444 104.69 198.444 103.964C198.444 103.197 198.229 102.578 197.799 102.108C197.37 101.637 196.767 101.402 195.99 101.402C195.274 101.402 194.701 101.627 194.272 102.077C193.852 102.527 193.643 103.12 193.643 103.856C193.643 104.603 193.852 105.201 194.272 105.651C194.691 106.101 195.299 106.326 196.097 106.326ZM202.476 111.633C202.21 111.633 201.985 111.541 201.801 111.356C201.617 111.172 201.525 110.947 201.525 110.682C201.525 110.416 201.617 110.191 201.801 110.007C201.985 109.823 202.21 109.731 202.476 109.731C202.731 109.731 202.946 109.823 203.12 110.007C203.304 110.191 203.396 110.416 203.396 110.682C203.396 110.947 203.304 111.172 203.12 111.356C202.946 111.541 202.731 111.633 202.476 111.633ZM202.476 105.068C202.21 105.068 201.985 104.976 201.801 104.792C201.617 104.608 201.525 104.383 201.525 104.117C201.525 103.851 201.617 103.626 201.801 103.442C201.985 103.258 202.21 103.166 202.476 103.166C202.731 103.166 202.946 103.258 203.12 103.442C203.304 103.626 203.396 103.851 203.396 104.117C203.396 104.383 203.304 104.608 203.12 104.792C202.946 104.976 202.731 105.068 202.476 105.068ZM205.066 105.881C205.066 104.122 205.352 102.752 205.925 101.77C206.498 100.778 207.5 100.283 208.931 100.283C210.352 100.283 211.349 100.778 211.922 101.77C212.495 102.752 212.781 104.122 212.781 105.881C212.781 107.67 212.495 109.061 211.922 110.053C211.349 111.045 210.352 111.541 208.931 111.541C207.5 111.541 206.498 111.045 205.925 110.053C205.352 109.061 205.066 107.67 205.066 105.881ZM211.401 105.881C211.401 104.991 211.339 104.24 211.217 103.626C211.104 103.002 210.864 102.501 210.496 102.123C210.138 101.745 209.616 101.556 208.931 101.556C208.236 101.556 207.704 101.745 207.336 102.123C206.978 102.501 206.738 103.002 206.615 103.626C206.503 104.24 206.446 104.991 206.446 105.881C206.446 106.801 206.503 107.573 206.615 108.197C206.738 108.821 206.978 109.322 207.336 109.7C207.704 110.078 208.236 110.267 208.931 110.267C209.616 110.267 210.138 110.078 210.496 109.7C210.864 109.322 211.104 108.821 211.217 108.197C211.339 107.573 211.401 106.801 211.401 105.881ZM214.697 105.881C214.697 104.122 214.983 102.752 215.556 101.77C216.129 100.778 217.131 100.283 218.562 100.283C219.984 100.283 220.981 100.778 221.553 101.77C222.126 102.752 222.412 104.122 222.412 105.881C222.412 107.67 222.126 109.061 221.553 110.053C220.981 111.045 219.984 111.541 218.562 111.541C217.131 111.541 216.129 111.045 215.556 110.053C214.983 109.061 214.697 107.67 214.697 105.881ZM221.032 105.881C221.032 104.991 220.97 104.24 220.848 103.626C220.735 103.002 220.495 102.501 220.127 102.123C219.769 101.745 219.247 101.556 218.562 101.556C217.867 101.556 217.335 101.745 216.967 102.123C216.609 102.501 216.369 103.002 216.246 103.626C216.134 104.24 216.078 104.991 216.078 105.881C216.078 106.801 216.134 107.573 216.246 108.197C216.369 108.821 216.609 109.322 216.967 109.7C217.335 110.078 217.867 110.267 218.562 110.267C219.247 110.267 219.769 110.078 220.127 109.7C220.495 109.322 220.735 108.821 220.848 108.197C220.97 107.573 221.032 106.801 221.032 105.881ZM230.012 100.85V107.614C230.012 108.565 230.243 109.271 230.703 109.731C231.173 110.191 231.822 110.421 232.651 110.421C233.469 110.421 234.108 110.191 234.568 109.731C235.038 109.271 235.273 108.565 235.273 107.614V100.85H236.669V107.599C236.669 108.488 236.49 109.24 236.132 109.853C235.774 110.457 235.289 110.907 234.675 111.203C234.072 111.5 233.392 111.648 232.635 111.648C231.879 111.648 231.193 111.5 230.58 111.203C229.977 110.907 229.496 110.457 229.138 109.853C228.791 109.24 228.617 108.488 228.617 107.599V100.85H230.012ZM245.577 100.85V101.985H242.663V111.541H241.267V101.985H238.338V100.85H245.577ZM246.774 106.188C246.774 105.145 247.009 104.209 247.479 103.381C247.95 102.542 248.589 101.888 249.397 101.418C250.215 100.947 251.12 100.712 252.112 100.712C253.277 100.712 254.295 100.993 255.164 101.556C256.033 102.118 256.667 102.916 257.066 103.948H255.394C255.097 103.304 254.668 102.808 254.105 102.461C253.553 102.113 252.889 101.939 252.112 101.939C251.365 101.939 250.695 102.113 250.102 102.461C249.509 102.808 249.044 103.304 248.707 103.948C248.369 104.582 248.2 105.329 248.2 106.188C248.2 107.036 248.369 107.783 248.707 108.427C249.044 109.061 249.509 109.552 250.102 109.899C250.695 110.247 251.365 110.421 252.112 110.421C252.889 110.421 253.553 110.252 254.105 109.915C254.668 109.567 255.097 109.071 255.394 108.427H257.066C256.667 109.449 256.033 110.242 255.164 110.804C254.295 111.356 253.277 111.633 252.112 111.633C251.12 111.633 250.215 111.402 249.397 110.942C248.589 110.472 247.95 109.823 247.479 108.994C247.009 108.166 246.774 107.231 246.774 106.188ZM267.119 106.525H263.852V109.838H262.548V106.525H259.297V105.344H262.548V102.016H263.852V105.344H267.119V106.525ZM276.208 101.54L271.945 111.541H270.533L274.859 101.678H268.938V100.482H276.208V101.54ZM278.431 111.633C278.165 111.633 277.94 111.541 277.756 111.356C277.572 111.172 277.48 110.947 277.48 110.682C277.48 110.416 277.572 110.191 277.756 110.007C277.94 109.823 278.165 109.731 278.431 109.731C278.686 109.731 278.901 109.823 279.075 110.007C279.259 110.191 279.351 110.416 279.351 110.682C279.351 110.947 279.259 111.172 279.075 111.356C278.901 111.541 278.686 111.633 278.431 111.633Z" fill="white"/>
<path d="M98.5 141.541C98.5 137.122 102.082 133.541 106.5 133.541H219.5C223.918 133.541 227.5 137.122 227.5 141.541V165.541C227.5 169.959 223.918 173.541 219.5 173.541H106.5C102.082 173.541 98.5 169.959 98.5 165.541V141.541Z" fill="#E71869"/>
<path d="M131.446 153.957C131.446 152.869 131.691 151.893 132.182 151.029C132.672 150.154 133.339 149.471 134.182 148.981C135.035 148.49 135.979 148.245 137.014 148.245C138.23 148.245 139.291 148.538 140.198 149.125C141.104 149.711 141.766 150.543 142.182 151.621H140.438C140.128 150.949 139.68 150.431 139.094 150.069C138.518 149.706 137.824 149.525 137.014 149.525C136.235 149.525 135.536 149.706 134.918 150.069C134.299 150.431 133.814 150.949 133.462 151.621C133.11 152.282 132.934 153.061 132.934 153.957C132.934 154.842 133.11 155.621 133.462 156.293C133.814 156.954 134.299 157.466 134.918 157.829C135.536 158.191 136.235 158.373 137.014 158.373C137.824 158.373 138.518 158.197 139.094 157.845C139.68 157.482 140.128 156.965 140.438 156.293H142.182C141.766 157.359 141.104 158.186 140.198 158.773C139.291 159.349 138.23 159.637 137.014 159.637C135.979 159.637 135.035 159.397 134.182 158.917C133.339 158.426 132.672 157.749 132.182 156.885C131.691 156.021 131.446 155.045 131.446 153.957ZM148.173 159.685C147.352 159.685 146.605 159.498 145.933 159.125C145.272 158.751 144.749 158.223 144.365 157.541C143.992 156.847 143.805 156.047 143.805 155.141C143.805 154.245 143.997 153.455 144.381 152.773C144.776 152.079 145.309 151.551 145.981 151.189C146.653 150.815 147.405 150.629 148.237 150.629C149.069 150.629 149.821 150.815 150.493 151.189C151.165 151.551 151.693 152.074 152.077 152.757C152.472 153.439 152.669 154.234 152.669 155.141C152.669 156.047 152.467 156.847 152.061 157.541C151.667 158.223 151.128 158.751 150.445 159.125C149.763 159.498 149.005 159.685 148.173 159.685ZM148.173 158.405C148.696 158.405 149.187 158.282 149.645 158.037C150.104 157.791 150.472 157.423 150.749 156.933C151.037 156.442 151.181 155.845 151.181 155.141C151.181 154.437 151.043 153.839 150.765 153.349C150.488 152.858 150.125 152.495 149.677 152.261C149.229 152.015 148.744 151.893 148.221 151.893C147.688 151.893 147.197 152.015 146.749 152.261C146.312 152.495 145.96 152.858 145.693 153.349C145.427 153.839 145.293 154.437 145.293 155.141C145.293 155.855 145.421 156.458 145.677 156.949C145.944 157.439 146.296 157.807 146.733 158.053C147.171 158.287 147.651 158.405 148.173 158.405ZM158.856 150.613C159.922 150.613 160.786 150.938 161.448 151.589C162.109 152.229 162.44 153.157 162.44 154.373V159.541H161V154.581C161 153.706 160.781 153.039 160.344 152.581C159.906 152.111 159.309 151.877 158.552 151.877C157.784 151.877 157.17 152.117 156.712 152.597C156.264 153.077 156.04 153.775 156.04 154.693V159.541H154.584V150.773H156.04V152.021C156.328 151.573 156.717 151.226 157.208 150.981C157.709 150.735 158.258 150.613 158.856 150.613ZM168.386 151.973H166.546V159.541H165.09V151.973H163.954V150.773H165.09V150.149C165.09 149.167 165.341 148.453 165.842 148.005C166.354 147.546 167.17 147.317 168.29 147.317V148.533C167.65 148.533 167.197 148.661 166.93 148.917C166.674 149.162 166.546 149.573 166.546 150.149V150.773H168.386V151.973ZM170.836 149.349C170.558 149.349 170.324 149.253 170.132 149.061C169.94 148.869 169.844 148.634 169.844 148.357C169.844 148.079 169.94 147.845 170.132 147.653C170.324 147.461 170.558 147.365 170.836 147.365C171.102 147.365 171.326 147.461 171.508 147.653C171.7 147.845 171.796 148.079 171.796 148.357C171.796 148.634 171.7 148.869 171.508 149.061C171.326 149.253 171.102 149.349 170.836 149.349ZM171.54 150.773V159.541H170.084V150.773H171.54ZM175.477 152.197C175.733 151.695 176.096 151.306 176.565 151.029C177.045 150.751 177.626 150.613 178.309 150.613V152.117H177.925C176.293 152.117 175.477 153.002 175.477 154.773V159.541H174.021V150.773H175.477V152.197ZM190.534 150.613C191.216 150.613 191.824 150.757 192.358 151.045C192.891 151.322 193.312 151.743 193.622 152.309C193.931 152.874 194.086 153.562 194.086 154.373V159.541H192.646V154.581C192.646 153.706 192.427 153.039 191.99 152.581C191.563 152.111 190.982 151.877 190.246 151.877C189.488 151.877 188.886 152.122 188.438 152.613C187.99 153.093 187.766 153.791 187.766 154.709V159.541H186.326V154.581C186.326 153.706 186.107 153.039 185.67 152.581C185.243 152.111 184.662 151.877 183.926 151.877C183.168 151.877 182.566 152.122 182.118 152.613C181.67 153.093 181.446 153.791 181.446 154.709V159.541H179.99V150.773H181.446V152.037C181.734 151.578 182.118 151.226 182.598 150.981C183.088 150.735 183.627 150.613 184.214 150.613C184.95 150.613 185.6 150.778 186.166 151.109C186.731 151.439 187.152 151.925 187.43 152.565C187.675 151.946 188.08 151.466 188.646 151.125C189.211 150.783 189.84 150.613 190.534 150.613Z" fill="white"/>
</svg>
